<svg width="32" height="32" viewBox="0 0 32 32" fill="none" xmlns="http://www.w3.org/2000/svg">
<g clip-path="url(#clip0_801_8)">
<path d="M21.5 21.208V30.536C21.5 30.7205 21.449 30.9013 21.3527 31.0586C21.2563 31.2159 21.1183 31.3435 20.9539 31.4272C20.7896 31.5109 20.6053 31.5476 20.4214 31.5331C20.2375 31.5185 20.0612 31.4535 19.912 31.345L16.588 28.928C16.4171 28.8038 16.2113 28.7369 16 28.7369C15.7887 28.7369 15.5829 28.8038 15.412 28.928L12.088 31.345C11.9388 31.4535 11.7625 31.5185 11.5786 31.5331C11.3947 31.5476 11.2104 31.5109 11.0461 31.4272C10.8817 31.3435 10.7437 31.2159 10.6473 31.0586C10.551 30.9013 10.5 30.7205 10.5 30.536V21.208H21.5Z" fill="#E23342"/>
<path d="M27.5 12C27.5 12.971 26.093 13.745 25.853 14.641C25.605 15.568 26.43 16.941 25.96 17.752C25.49 18.563 23.879 18.544 23.21 19.212C22.541 19.88 22.573 21.485 21.75 21.961C20.927 22.437 19.566 21.606 18.64 21.853C17.74 22.092 16.971 23.5 15.999 23.5C15.027 23.5 14.254 22.093 13.358 21.853C12.431 21.605 11.058 22.43 10.247 21.96C9.436 21.49 9.455 19.879 8.787 19.21C8.119 18.541 6.514 18.573 6.038 17.75C5.562 16.927 6.393 15.566 6.146 14.64C5.907 13.745 4.5 12.971 4.5 12C4.5 11.029 5.907 10.255 6.147 9.359C6.395 8.432 5.57 7.059 6.04 6.248C6.51 5.437 8.121 5.456 8.79 4.788C9.459 4.12 9.427 2.515 10.25 2.039C11.073 1.563 12.434 2.394 13.36 2.147C14.255 1.907 15.029 0.5 16 0.5C16.971 0.5 17.745 1.907 18.641 2.147C19.568 2.395 20.941 1.57 21.752 2.04C22.563 2.51 22.544 4.121 23.212 4.79C23.88 5.459 25.485 5.427 25.961 6.25C26.437 7.073 25.606 8.434 25.853 9.36C26.093 10.255 27.5 11.029 27.5 12Z" fill="#FDD331"/>
<path d="M16 19.5C20.1421 19.5 23.5 16.1421 23.5 12C23.5 7.85786 20.1421 4.5 16 4.5C11.8579 4.5 8.5 7.85786 8.5 12C8.5 16.1421 11.8579 19.5 16 19.5Z" fill="#F59831"/>
<path d="M17.5318 10.2323L14.6998 13.0613L13.9998 12.3543C13.8122 12.1668 13.5579 12.0615 13.2928 12.0615C13.0276 12.0615 12.7733 12.1668 12.5858 12.3543C12.3983 12.5418 12.293 12.7961 12.293 13.0613C12.293 13.3264 12.3983 13.5807 12.5858 13.7683L13.2928 14.4753L13.9998 15.1823C14.1873 15.3697 14.4416 15.4751 14.7068 15.4751C14.9719 15.4751 15.2262 15.3697 15.4138 15.1823L16.1208 14.4753L18.9488 11.6473C19.1362 11.4597 19.2415 11.2054 19.2415 10.9403C19.2415 10.6751 19.1362 10.4208 18.9488 10.2333C18.8559 10.1399 18.7456 10.0658 18.624 10.0152C18.5025 9.96466 18.3721 9.93857 18.2405 9.93848C18.1088 9.93838 17.9784 9.96429 17.8568 10.0147C17.7352 10.0651 17.6247 10.1391 17.5318 10.2323Z" fill="#3EB57B"/>
<mask id="path-5-inside-1_801_8" fill="white">
<path d="M27.014 13.821C27.5556 13.356 27.9066 12.7077 28 12C27.9066 11.2923 27.5556 10.644 27.014 10.179C26.7272 9.91146 26.497 9.5891 26.337 9.231C26.2912 8.82372 26.3286 8.41138 26.447 8.019C26.6762 7.36207 26.6574 6.644 26.394 6C25.9632 5.44382 25.3434 5.06491 24.652 4.935C24.2597 4.84325 23.89 4.67318 23.565 4.435C23.3268 4.11004 23.1568 3.74031 23.065 3.348C22.9356 2.65638 22.5566 2.03643 22 1.606C21.3558 1.34225 20.6374 1.32305 19.98 1.552C19.5874 1.67103 19.1746 1.70846 18.767 1.662C18.4089 1.50201 18.0865 1.2718 17.819 0.985C17.3544 0.444229 16.7068 0.0935692 16 0C15.2923 0.0933606 14.644 0.444428 14.179 0.986C13.9115 1.2728 13.5891 1.50301 13.231 1.663C12.8237 1.71033 12.4111 1.67288 12.019 1.553C11.3622 1.32287 10.6438 1.34173 10 1.606C9.44287 2.03672 9.0632 2.65693 8.933 3.349C8.84125 3.74131 8.67118 4.11104 8.433 4.436C8.10804 4.67418 7.73831 4.84425 7.346 4.936C6.65526 5.06558 6.0361 5.44419 5.606 6C5.34225 6.64422 5.32305 7.36261 5.552 8.02C5.67036 8.41273 5.70779 8.82539 5.662 9.233C5.50201 9.5911 5.2718 9.91346 4.985 10.181C4.44423 10.6456 4.09357 11.2932 4 12C4.09336 12.7077 4.44443 13.356 4.986 13.821C5.2728 14.0885 5.50301 14.4109 5.663 14.769C5.70882 15.1763 5.67139 15.5886 5.553 15.981C5.3238 16.6379 5.34265 17.356 5.606 18C6.03681 18.5562 6.65659 18.9351 7.348 19.065C7.74031 19.1568 8.11004 19.3268 8.435 19.565C8.67318 19.89 8.84325 20.2597 8.935 20.652C9.06438 21.3436 9.4434 21.9636 10 22.394V30.536C10.0001 30.8126 10.0766 31.0839 10.2212 31.3197C10.3658 31.5556 10.5728 31.7468 10.8193 31.8724C11.0658 31.9979 11.3423 32.0528 11.6181 32.0311C11.8938 32.0093 12.1582 31.9117 12.382 31.749L15.706 29.332C15.7914 29.2699 15.8944 29.2364 16 29.2364C16.1056 29.2364 16.2086 29.2699 16.294 29.332L19.618 31.749C19.8418 31.9117 20.1062 32.0093 20.3819 32.0311C20.6577 32.0528 20.9342 31.9979 21.1807 31.8724C21.4272 31.7468 21.6342 31.5556 21.7788 31.3197C21.9234 31.0839 21.9999 30.8126 22 30.536V22.394C22.5562 21.9632 22.9351 21.3434 23.065 20.652C23.1568 20.2597 23.3268 19.89 23.565 19.565C23.89 19.3268 24.2597 19.1568 24.652 19.065C25.3436 18.9356 25.9636 18.5566 26.394 18C26.6577 17.3558 26.6769 16.6374 26.448 15.98C26.3296 15.5873 26.2922 15.1746 26.338 14.767C26.4979 14.4097 26.7278 14.088 27.014 13.821ZM21 30.536C20.9992 30.6278 20.9731 30.7177 20.9246 30.7957C20.8761 30.8737 20.807 30.9368 20.725 30.9781C20.6429 31.0194 20.5511 31.0374 20.4596 31.0299C20.368 31.0225 20.2803 30.99 20.206 30.936L16.882 28.519C16.6257 28.3327 16.3169 28.2323 16 28.2323C15.6831 28.2323 15.3743 28.3327 15.118 28.519L11.794 30.94C11.7197 30.994 11.632 31.0265 11.5404 31.0339C11.4489 31.0414 11.3571 31.0234 11.275 30.9821C11.193 30.9408 11.1239 30.8777 11.0754 30.7997C11.0269 30.7217 11.0008 30.6318 11 30.54V22.6C11.3431 22.5759 11.6836 22.5234 12.018 22.443C12.4108 22.325 12.8234 22.2876 13.231 22.333C13.5891 22.493 13.9115 22.7232 14.179 23.01C14.6433 23.5531 15.2918 23.9056 16 24C16.7077 23.9066 17.356 23.5556 17.821 23.014C18.0885 22.7272 18.4109 22.497 18.769 22.337C19.1763 22.2916 19.5885 22.329 19.981 22.447C20.3159 22.5256 20.6567 22.5768 21 22.6V30.536ZM26.271 13.151C25.8696 13.5284 25.5615 13.994 25.371 14.511C25.2736 15.0705 25.3079 15.645 25.471 16.189C25.6209 16.6107 25.6418 17.0674 25.531 17.501C25.366 17.787 24.847 17.954 24.346 18.115C23.7998 18.2435 23.291 18.4976 22.86 18.857C22.5004 19.2878 22.2463 19.7967 22.118 20.343C21.956 20.843 21.789 21.363 21.504 21.528C21.0706 21.6401 20.6134 21.6192 20.192 21.468C19.6482 21.3058 19.0742 21.2715 18.515 21.368C17.998 21.5585 17.5324 21.8666 17.155 22.268C16.755 22.626 16.349 22.997 16.004 22.997C15.659 22.997 15.249 22.627 14.853 22.268C14.4756 21.8666 14.01 21.5585 13.493 21.368C13.3199 21.3237 13.1417 21.3022 12.963 21.304C12.5761 21.3186 12.1917 21.3732 11.816 21.467C11.3945 21.6179 10.9375 21.6388 10.504 21.527C10.218 21.362 10.051 20.843 9.89 20.342C9.76146 19.7958 9.50741 19.287 9.148 18.856C8.71715 18.4964 8.20832 18.2423 7.662 18.114C7.162 17.952 6.642 17.785 6.477 17.5C6.3654 17.0665 6.3863 16.6095 6.537 16.188C6.70013 15.6444 6.73437 15.0702 6.637 14.511C6.44651 13.994 6.13839 13.5284 5.737 13.151C5.37 12.755 5 12.346 5 12C5 11.654 5.37 11.245 5.729 10.849C6.13039 10.4716 6.43851 10.006 6.629 9.489C6.72638 8.92949 6.69214 8.35499 6.529 7.811C6.38028 7.38935 6.36044 6.93297 6.472 6.5C6.637 6.214 7.156 6.047 7.657 5.886C8.20325 5.75746 8.71203 5.50341 9.143 5.144C9.50259 4.71315 9.75667 4.20432 9.885 3.658C10.047 3.158 10.214 2.638 10.499 2.473C10.9328 2.36119 11.3902 2.38209 11.812 2.533C12.3556 2.69613 12.9298 2.73037 13.489 2.633C14.006 2.44251 14.4716 2.13439 14.849 1.733C15.245 1.37 15.654 1 16 1C16.346 1 16.755 1.37 17.151 1.729C17.5284 2.13039 17.994 2.43851 18.511 2.629C19.0706 2.72485 19.6447 2.69063 20.189 2.529C20.6108 2.37962 21.0674 2.35874 21.501 2.469C21.787 2.634 21.954 3.153 22.115 3.654C22.2435 4.20025 22.4976 4.70903 22.857 5.14C23.2878 5.49959 23.7967 5.75367 24.343 5.882C24.843 6.044 25.363 6.211 25.528 6.496C25.6398 6.92981 25.6189 7.38719 25.468 7.809C25.3049 8.35265 25.2706 8.92682 25.368 9.486C25.5585 10.003 25.8666 10.4686 26.268 10.846C26.626 11.246 26.997 11.652 26.997 11.997C26.997 12.342 26.63 12.755 26.271 13.151ZM16 4C14.4177 4 12.871 4.46919 11.5554 5.34824C10.2398 6.22729 9.21447 7.47672 8.60896 8.93853C8.00346 10.4003 7.84504 12.0089 8.15372 13.5607C8.4624 15.1126 9.22433 16.538 10.3431 17.6569C11.462 18.7757 12.8874 19.5376 14.4393 19.8463C15.9911 20.155 17.5997 19.9965 19.0615 19.391C20.5233 18.7855 21.7727 17.7602 22.6518 16.4446C23.5308 15.129 24 13.5823 24 12C23.9976 9.879 23.154 7.84555 21.6542 6.34578C20.1544 4.846 18.121 4.00238 16 4ZM16 19C14.6155 19 13.2622 18.5895 12.111 17.8203C10.9599 17.0511 10.0627 15.9579 9.53284 14.6788C9.00303 13.3997 8.86441 11.9922 9.1345 10.6344C9.4046 9.2765 10.0713 8.02922 11.0503 7.05025C12.0292 6.07128 13.2765 5.4046 14.6344 5.1345C15.9922 4.86441 17.3997 5.00303 18.6788 5.53284C19.9579 6.06266 21.0511 6.95986 21.8203 8.11101C22.5895 9.26215 23 10.6155 23 12C22.9979 13.8559 22.2597 15.6351 20.9474 16.9474C19.6351 18.2597 17.8559 18.9979 16 19ZM18.24 9.439C18.0429 9.43842 17.8477 9.47692 17.6655 9.55227C17.4834 9.62762 17.3181 9.73833 17.179 9.878L14.7 12.354L14.351 12C14.0681 11.7268 13.6892 11.5756 13.2959 11.579C12.9026 11.5824 12.5264 11.7402 12.2483 12.0183C11.9702 12.2964 11.8124 12.6726 11.809 13.0659C11.8056 13.4592 11.9568 13.8381 12.23 14.121L13.644 15.535C13.9253 15.8162 14.3068 15.9742 14.7045 15.9742C15.1022 15.9742 15.4837 15.8162 15.765 15.535L19.3 12C19.5812 11.7187 19.7392 11.3372 19.7392 10.9395C19.7392 10.5418 19.5812 10.1603 19.3 9.879C19.1613 9.739 18.9962 9.628 18.8142 9.55246C18.6322 9.47692 18.437 9.43835 18.24 9.439ZM18.593 11.293L15.058 14.828C14.9642 14.9217 14.8371 14.9744 14.7045 14.9744C14.5719 14.9744 14.4448 14.9217 14.351 14.828L12.937 13.414C12.8892 13.3679 12.8512 13.3127 12.8249 13.2517C12.7987 13.1907 12.785 13.1251 12.7844 13.0587C12.7838 12.9923 12.7964 12.9265 12.8216 12.865C12.8467 12.8036 12.8839 12.7477 12.9308 12.7008C12.9777 12.6539 13.0336 12.6167 13.095 12.5916C13.1565 12.5664 13.2223 12.5538 13.2887 12.5544C13.3551 12.555 13.4207 12.5687 13.4817 12.5949C13.5427 12.6212 13.5979 12.6592 13.644 12.707L14.351 13.414C14.4448 13.5077 14.5719 13.5604 14.7045 13.5604C14.8371 13.5604 14.9642 13.5077 15.058 13.414L17.886 10.586C17.9325 10.5396 17.9877 10.5028 18.0485 10.4778C18.1092 10.4527 18.1743 10.4399 18.24 10.44C18.3389 10.44 18.4356 10.4694 18.5179 10.5244C18.6001 10.5794 18.6642 10.6576 18.702 10.749C18.7398 10.8404 18.7496 10.941 18.7302 11.038C18.7108 11.1351 18.663 11.2231 18.593 11.293Z"/>
</mask>
<path d="M27.014 13.821C27.5556 13.356 27.9066 12.7077 28 12C27.9066 11.2923 27.5556 10.644 27.014 10.179C26.7272 9.91146 26.497 9.5891 26.337 9.231C26.2912 8.82372 26.3286 8.41138 26.447 8.019C26.6762 7.36207 26.6574 6.644 26.394 6C25.9632 5.44382 25.3434 5.06491 24.652 4.935C24.2597 4.84325 23.89 4.67318 23.565 4.435C23.3268 4.11004 23.1568 3.74031 23.065 3.348C22.9356 2.65638 22.5566 2.03643 22 1.606C21.3558 1.34225 20.6374 1.32305 19.98 1.552C19.5874 1.67103 19.1746 1.70846 18.767 1.662C18.4089 1.50201 18.0865 1.2718 17.819 0.985C17.3544 0.444229 16.7068 0.0935692 16 0C15.2923 0.0933606 14.644 0.444428 14.179 0.986C13.9115 1.2728 13.5891 1.50301 13.231 1.663C12.8237 1.71033 12.4111 1.67288 12.019 1.553C11.3622 1.32287 10.6438 1.34173 10 1.606C9.44287 2.03672 9.0632 2.65693 8.933 3.349C8.84125 3.74131 8.67118 4.11104 8.433 4.436C8.10804 4.67418 7.73831 4.84425 7.346 4.936C6.65526 5.06558 6.0361 5.44419 5.606 6C5.34225 6.64422 5.32305 7.36261 5.552 8.02C5.67036 8.41273 5.70779 8.82539 5.662 9.233C5.50201 9.5911 5.2718 9.91346 4.985 10.181C4.44423 10.6456 4.09357 11.2932 4 12C4.09336 12.7077 4.44443 13.356 4.986 13.821C5.2728 14.0885 5.50301 14.4109 5.663 14.769C5.70882 15.1763 5.67139 15.5886 5.553 15.981C5.3238 16.6379 5.34265 17.356 5.606 18C6.03681 18.5562 6.65659 18.9351 7.348 19.065C7.74031 19.1568 8.11004 19.3268 8.435 19.565C8.67318 19.89 8.84325 20.2597 8.935 20.652C9.06438 21.3436 9.4434 21.9636 10 22.394V30.536C10.0001 30.8126 10.0766 31.0839 10.2212 31.3197C10.3658 31.5556 10.5728 31.7468 10.8193 31.8724C11.0658 31.9979 11.3423 32.0528 11.6181 32.0311C11.8938 32.0093 12.1582 31.9117 12.382 31.749L15.706 29.332C15.7914 29.2699 15.8944 29.2364 16 29.2364C16.1056 29.2364 16.2086 29.2699 16.294 29.332L19.618 31.749C19.8418 31.9117 20.1062 32.0093 20.3819 32.0311C20.6577 32.0528 20.9342 31.9979 21.1807 31.8724C21.4272 31.7468 21.6342 31.5556 21.7788 31.3197C21.9234 31.0839 21.9999 30.8126 22 30.536V22.394C22.5562 21.9632 22.9351 21.3434 23.065 20.652C23.1568 20.2597 23.3268 19.89 23.565 19.565C23.89 19.3268 24.2597 19.1568 24.652 19.065C25.3436 18.9356 25.9636 18.5566 26.394 18C26.6577 17.3558 26.6769 16.6374 26.448 15.98C26.3296 15.5873 26.2922 15.1746 26.338 14.767C26.4979 14.4097 26.7278 14.088 27.014 13.821ZM21 30.536C20.9992 30.6278 20.9731 30.7177 20.9246 30.7957C20.8761 30.8737 20.807 30.9368 20.725 30.9781C20.6429 31.0194 20.5511 31.0374 20.4596 31.0299C20.368 31.0225 20.2803 30.99 20.206 30.936L16.882 28.519C16.6257 28.3327 16.3169 28.2323 16 28.2323C15.6831 28.2323 15.3743 28.3327 15.118 28.519L11.794 30.94C11.7197 30.994 11.632 31.0265 11.5404 31.0339C11.4489 31.0414 11.3571 31.0234 11.275 30.9821C11.193 30.9408 11.1239 30.8777 11.0754 30.7997C11.0269 30.7217 11.0008 30.6318 11 30.54V22.6C11.3431 22.5759 11.6836 22.5234 12.018 22.443C12.4108 22.325 12.8234 22.2876 13.231 22.333C13.5891 22.493 13.9115 22.7232 14.179 23.01C14.6433 23.5531 15.2918 23.9056 16 24C16.7077 23.9066 17.356 23.5556 17.821 23.014C18.0885 22.7272 18.4109 22.497 18.769 22.337C19.1763 22.2916 19.5885 22.329 19.981 22.447C20.3159 22.5256 20.6567 22.5768 21 22.6V30.536ZM26.271 13.151C25.8696 13.5284 25.5615 13.994 25.371 14.511C25.2736 15.0705 25.3079 15.645 25.471 16.189C25.6209 16.6107 25.6418 17.0674 25.531 17.501C25.366 17.787 24.847 17.954 24.346 18.115C23.7998 18.2435 23.291 18.4976 22.86 18.857C22.5004 19.2878 22.2463 19.7967 22.118 20.343C21.956 20.843 21.789 21.363 21.504 21.528C21.0706 21.6401 20.6134 21.6192 20.192 21.468C19.6482 21.3058 19.0742 21.2715 18.515 21.368C17.998 21.5585 17.5324 21.8666 17.155 22.268C16.755 22.626 16.349 22.997 16.004 22.997C15.659 22.997 15.249 22.627 14.853 22.268C14.4756 21.8666 14.01 21.5585 13.493 21.368C13.3199 21.3237 13.1417 21.3022 12.963 21.304C12.5761 21.3186 12.1917 21.3732 11.816 21.467C11.3945 21.6179 10.9375 21.6388 10.504 21.527C10.218 21.362 10.051 20.843 9.89 20.342C9.76146 19.7958 9.50741 19.287 9.148 18.856C8.71715 18.4964 8.20832 18.2423 7.662 18.114C7.162 17.952 6.642 17.785 6.477 17.5C6.3654 17.0665 6.3863 16.6095 6.537 16.188C6.70013 15.6444 6.73437 15.0702 6.637 14.511C6.44651 13.994 6.13839 13.5284 5.737 13.151C5.37 12.755 5 12.346 5 12C5 11.654 5.37 11.245 5.729 10.849C6.13039 10.4716 6.43851 10.006 6.629 9.489C6.72638 8.92949 6.69214 8.35499 6.529 7.811C6.38028 7.38935 6.36044 6.93297 6.472 6.5C6.637 6.214 7.156 6.047 7.657 5.886C8.20325 5.75746 8.71203 5.50341 9.143 5.144C9.50259 4.71315 9.75667 4.20432 9.885 3.658C10.047 3.158 10.214 2.638 10.499 2.473C10.9328 2.36119 11.3902 2.38209 11.812 2.533C12.3556 2.69613 12.9298 2.73037 13.489 2.633C14.006 2.44251 14.4716 2.13439 14.849 1.733C15.245 1.37 15.654 1 16 1C16.346 1 16.755 1.37 17.151 1.729C17.5284 2.13039 17.994 2.43851 18.511 2.629C19.0706 2.72485 19.6447 2.69063 20.189 2.529C20.6108 2.37962 21.0674 2.35874 21.501 2.469C21.787 2.634 21.954 3.153 22.115 3.654C22.2435 4.20025 22.4976 4.70903 22.857 5.14C23.2878 5.49959 23.7967 5.75367 24.343 5.882C24.843 6.044 25.363 6.211 25.528 6.496C25.6398 6.92981 25.6189 7.38719 25.468 7.809C25.3049 8.35265 25.2706 8.92682 25.368 9.486C25.5585 10.003 25.8666 10.4686 26.268 10.846C26.626 11.246 26.997 11.652 26.997 11.997C26.997 12.342 26.63 12.755 26.271 13.151ZM16 4C14.4177 4 12.871 4.46919 11.5554 5.34824C10.2398 6.22729 9.21447 7.47672 8.60896 8.93853C8.00346 10.4003 7.84504 12.0089 8.15372 13.5607C8.4624 15.1126 9.22433 16.538 10.3431 17.6569C11.462 18.7757 12.8874 19.5376 14.4393 19.8463C15.9911 20.155 17.5997 19.9965 19.0615 19.391C20.5233 18.7855 21.7727 17.7602 22.6518 16.4446C23.5308 15.129 24 13.5823 24 12C23.9976 9.879 23.154 7.84555 21.6542 6.34578C20.1544 4.846 18.121 4.00238 16 4ZM16 19C14.6155 19 13.2622 18.5895 12.111 17.8203C10.9599 17.0511 10.0627 15.9579 9.53284 14.6788C9.00303 13.3997 8.86441 11.9922 9.1345 10.6344C9.4046 9.2765 10.0713 8.02922 11.0503 7.05025C12.0292 6.07128 13.2765 5.4046 14.6344 5.1345C15.9922 4.86441 17.3997 5.00303 18.6788 5.53284C19.9579 6.06266 21.0511 6.95986 21.8203 8.11101C22.5895 9.26215 23 10.6155 23 12C22.9979 13.8559 22.2597 15.6351 20.9474 16.9474C19.6351 18.2597 17.8559 18.9979 16 19ZM18.24 9.439C18.0429 9.43842 17.8477 9.47692 17.6655 9.55227C17.4834 9.62762 17.3181 9.73833 17.179 9.878L14.7 12.354L14.351 12C14.0681 11.7268 13.6892 11.5756 13.2959 11.579C12.9026 11.5824 12.5264 11.7402 12.2483 12.0183C11.9702 12.2964 11.8124 12.6726 11.809 13.0659C11.8056 13.4592 11.9568 13.8381 12.23 14.121L13.644 15.535C13.9253 15.8162 14.3068 15.9742 14.7045 15.9742C15.1022 15.9742 15.4837 15.8162 15.765 15.535L19.3 12C19.5812 11.7187 19.7392 11.3372 19.7392 10.9395C19.7392 10.5418 19.5812 10.1603 19.3 9.879C19.1613 9.739 18.9962 9.628 18.8142 9.55246C18.6322 9.47692 18.437 9.43835 18.24 9.439ZM18.593 11.293L15.058 14.828C14.9642 14.9217 14.8371 14.9744 14.7045 14.9744C14.5719 14.9744 14.4448 14.9217 14.351 14.828L12.937 13.414C12.8892 13.3679 12.8512 13.3127 12.8249 13.2517C12.7987 13.1907 12.785 13.1251 12.7844 13.0587C12.7838 12.9923 12.7964 12.9265 12.8216 12.865C12.8467 12.8036 12.8839 12.7477 12.9308 12.7008C12.9777 12.6539 13.0336 12.6167 13.095 12.5916C13.1565 12.5664 13.2223 12.5538 13.2887 12.5544C13.3551 12.555 13.4207 12.5687 13.4817 12.5949C13.5427 12.6212 13.5979 12.6592 13.644 12.707L14.351 13.414C14.4448 13.5077 14.5719 13.5604 14.7045 13.5604C14.8371 13.5604 14.9642 13.5077 15.058 13.414L17.886 10.586C17.9325 10.5396 17.9877 10.5028 18.0485 10.4778C18.1092 10.4527 18.1743 10.4399 18.24 10.44C18.3389 10.44 18.4356 10.4694 18.5179 10.5244C18.6001 10.5794 18.6642 10.6576 18.702 10.749C18.7398 10.8404 18.7496 10.941 18.7302 11.038C18.7108 11.1351 18.663 11.2231 18.593 11.293Z" stroke="black" stroke-width="2" mask="url(#path-5-inside-1_801_8)"/>
</g>
<defs>
<clipPath id="clip0_801_8">
<rect width="32" height="32" fill="white"/>
</clipPath>
</defs>
</svg>
