<svg width="45" height="45" viewBox="0 0 45 45" fill="none" xmlns="http://www.w3.org/2000/svg">
<g clip-path="url(#clip0_645_2207)">
<path d="M30.0352 32.573L32.5739 30.0342L35.6981 33.1583L33.1593 35.6971L30.0352 32.573Z" fill="#676E87"/>
<path d="M32.5732 30.0352L31.9141 30.6943L33.1129 31.8932C33.4488 32.2291 33.6375 32.6846 33.6375 33.1597C33.6375 33.6347 33.4488 34.0903 33.1129 34.4262L32.4977 35.0414L33.1568 35.7006L35.6951 33.1623L32.5732 30.0352Z" fill="#5C7985"/>
<path d="M43.4114 43.4114C43.1165 43.7063 42.7664 43.9402 42.3811 44.0999C41.9958 44.2595 41.5828 44.3416 41.1657 44.3416C40.7487 44.3416 40.3357 44.2595 39.9504 44.0999C39.5651 43.9402 39.215 43.7063 38.9201 43.4114L33.1598 37.651C33.0314 37.5228 32.9296 37.3706 32.8601 37.2031C32.7906 37.0355 32.7549 36.8559 32.7549 36.6745C32.7549 36.4931 32.7906 36.3135 32.8601 36.146C32.9296 35.9784 33.0314 35.8262 33.1598 35.6981L35.6981 33.1598C35.8262 33.0314 35.9784 32.9296 36.146 32.8601C36.3135 32.7906 36.4931 32.7549 36.6745 32.7549C36.8559 32.7549 37.0355 32.7906 37.2031 32.8601C37.3706 32.9296 37.5228 33.0314 37.651 33.1598L43.4114 38.9201C43.7063 39.215 43.9402 39.5651 44.0999 39.9504C44.2595 40.3357 44.3416 40.7487 44.3416 41.1657C44.3416 41.5828 44.2595 41.9958 44.0999 42.3811C43.9402 42.7664 43.7063 43.1165 43.4114 43.4114Z" fill="#C0E1DD"/>
<path d="M43.4107 38.9201L37.6503 33.1598C37.5221 33.0314 37.3699 32.9296 37.2024 32.8601C37.0348 32.7906 36.8552 32.7549 36.6738 32.7549C36.4924 32.7549 36.3128 32.7906 36.1453 32.8601C35.9777 32.9296 35.8255 33.0314 35.6974 33.1598L35.3555 33.5017L40.7739 38.9201C41.0689 39.215 41.3028 39.5651 41.4624 39.9504C41.6221 40.3357 41.7042 40.7487 41.7042 41.1657C41.7042 41.5828 41.6221 41.9958 41.4624 42.3811C41.3028 42.7664 41.0689 43.1165 40.7739 43.4114C40.5057 43.6794 40.1917 43.8973 39.8467 44.0547C40.4356 44.3232 41.0924 44.4055 41.7293 44.2905C42.3662 44.1756 42.9528 43.8688 43.4107 43.4114C43.7056 43.1165 43.9395 42.7664 44.0992 42.3811C44.2588 41.9958 44.3409 41.5828 44.3409 41.1657C44.3409 40.7487 44.2588 40.3357 44.0992 39.9504C43.9395 39.5651 43.7056 39.215 43.4107 38.9201Z" fill="#676E87"/>
<path d="M31.7368 31.7368C38.8482 24.6253 38.8482 13.0954 31.7368 5.98391C24.6253 -1.12756 13.0953 -1.12756 5.98387 5.98391C-1.1276 13.0954 -1.1276 24.6253 5.98387 31.7368C13.0953 38.8483 24.6253 38.8483 31.7368 31.7368Z" fill="#5C7985"/>
<path d="M18.8601 33.5141C26.9532 33.5141 33.5141 26.9532 33.5141 18.8601C33.5141 10.7669 26.9532 4.20605 18.8601 4.20605C10.7669 4.20605 4.20605 10.7669 4.20605 18.8601C4.20605 26.9532 10.7669 33.5141 18.8601 33.5141Z" fill="#D9F0FF"/>
<path d="M26.0234 14.8096H11.6981C11.1006 14.8096 10.6162 15.294 10.6162 15.8915V24.6981C10.6162 25.2957 11.1006 25.7801 11.6981 25.7801H26.0234C26.621 25.7801 27.1054 25.2957 27.1054 24.6981V15.8915C27.1054 15.294 26.621 14.8096 26.0234 14.8096Z" fill="#676E87"/>
<path d="M11.7178 25.4717H14.3545C14.0675 25.4717 13.7922 25.3577 13.5891 25.1548C13.3861 24.952 13.2719 24.6768 13.2717 24.3897L13.2717 15.584C13.2719 15.297 13.3861 15.0218 13.5891 14.8189C13.7922 14.616 14.0675 14.502 14.3545 14.502H11.7178C11.4307 14.502 11.1555 14.616 10.9524 14.8189C10.7494 15.0218 10.6352 15.297 10.635 15.584L10.635 24.3897C10.6352 24.6768 10.7494 24.952 10.9524 25.1548C11.1555 25.3577 11.4307 25.4717 11.7178 25.4717Z" fill="#C0E1DD"/>
<path d="M26.0225 14.8096H23.3857C23.6728 14.8096 23.9481 14.9235 24.1511 15.1264C24.3541 15.3293 24.4683 15.6045 24.4686 15.8915V24.6973C24.4683 24.9843 24.3541 25.2595 24.1511 25.4624C23.9481 25.6652 23.6728 25.7792 23.3857 25.7792H26.0225C26.3095 25.7792 26.5848 25.6652 26.7878 25.4624C26.9909 25.2595 27.105 24.9843 27.1053 24.6973V15.8915C27.105 15.6045 26.9909 15.3293 26.7878 15.1264C26.5848 14.9235 26.3095 14.8096 26.0225 14.8096Z" fill="#C0E1DD"/>
<path d="M27.1054 18.1055L19.5767 21.3829C19.3506 21.4812 19.1068 21.5319 18.8603 21.5319C18.6139 21.5319 18.3701 21.4812 18.144 21.3829L10.6162 18.1055V15.8915C10.6162 15.6046 10.7302 15.3294 10.9331 15.1265C11.136 14.9236 11.4112 14.8096 11.6981 14.8096H26.0243C26.3113 14.8096 26.5866 14.9235 26.7897 15.1264C26.9927 15.3293 27.1069 15.6045 27.1071 15.8915L27.1054 18.1055Z" fill="#C0E1DD"/>
<path d="M26.0225 14.8096H23.3857C23.6728 14.8096 23.9481 14.9235 24.1511 15.1264C24.3541 15.3293 24.4683 15.6045 24.4686 15.8915V19.248L27.1053 18.1002V15.8915C27.105 15.6045 26.9909 15.3293 26.7878 15.1264C26.5848 14.9235 26.3095 14.8096 26.0225 14.8096Z" fill="#C0E1DD"/>
<path d="M19.5635 19.9561H18.1572C17.8174 19.9561 17.542 20.2315 17.542 20.5713V21.9775C17.542 22.3173 17.8174 22.5928 18.1572 22.5928H19.5635C19.9033 22.5928 20.1787 22.3173 20.1787 21.9775V20.5713C20.1787 20.2315 19.9033 19.9561 19.5635 19.9561Z" fill="#676E87"/>
<path d="M19.5637 19.9561H18.5547C18.7179 19.9561 18.8743 20.0209 18.9897 20.1363C19.1051 20.2516 19.1699 20.4081 19.1699 20.5713V21.9775C19.1699 22.1407 19.1051 22.2972 18.9897 22.4126C18.8743 22.528 18.7179 22.5928 18.5547 22.5928H19.5637C19.7268 22.5928 19.8833 22.528 19.9987 22.4126C20.1141 22.2972 20.1789 22.1407 20.1789 21.9775V20.5713C20.1789 20.4081 20.1141 20.2516 19.9987 20.1363C19.8833 20.0209 19.7268 19.9561 19.5637 19.9561Z" fill="#5C7985"/>
<path d="M43.8773 38.4528L38.1169 32.6951C37.8161 32.3943 37.4286 32.1952 37.0089 32.1257C36.5891 32.0562 36.1582 32.1198 35.7764 32.3075L33.827 30.3581C36.747 26.5579 38.1117 21.7891 37.6442 17.0195C37.1767 12.2499 34.9121 7.83683 31.3098 4.67589C27.7076 1.51496 23.0376 -0.157005 18.2477 -0.000692248C13.4578 0.155621 8.9068 2.12851 5.5183 5.51757C2.13692 8.90757 0.170519 13.4561 0.0174656 18.2418C-0.135588 23.0274 1.53615 27.6923 4.69401 31.2915C7.85187 34.8906 12.2597 37.1549 17.0246 37.6255C21.7895 38.0962 26.5552 36.738 30.3562 33.8263L32.3056 35.7757C32.1182 36.1577 32.055 36.5889 32.125 37.0086C32.195 37.4283 32.3946 37.8157 32.6958 38.1162L38.4562 43.8766C39.1789 44.5789 40.149 44.9687 41.1567 44.9615C42.1645 44.9543 43.1289 44.5508 43.8415 43.8382C44.5541 43.1256 44.9576 42.1611 44.9648 41.1534C44.972 40.1456 44.5823 39.1755 43.8799 38.4528H43.8773ZM29.9967 32.4314L29.9791 32.4473C26.4939 35.3044 22.0432 36.7115 17.5489 36.3771C13.0547 36.0427 8.86119 33.9925 5.83709 30.6511C2.813 27.3097 1.18999 22.9331 1.30425 18.4279C1.4185 13.9226 3.26125 9.63393 6.45082 6.45009C9.63685 3.27182 13.9219 1.43868 18.4208 1.32934C22.9197 1.22001 27.2888 2.84283 30.6254 5.86259C33.9621 8.88234 36.0114 13.0683 36.3501 17.5558C36.6888 22.0433 35.291 26.4894 32.4453 29.9758L32.426 29.9986C32.0639 30.4381 31.6789 30.862 31.2711 31.2704C30.8633 31.6788 30.4385 32.0658 29.9967 32.4314ZM31.3775 32.9816C31.6596 32.7303 31.9365 32.4719 32.2054 32.2029C32.4743 31.934 32.7327 31.6571 32.9841 31.375L34.7674 33.1592L33.1617 34.7649L31.3775 32.9816ZM42.9448 42.944C42.4726 43.4156 41.8327 43.6804 41.1654 43.6804C40.4982 43.6804 39.8582 43.4156 39.3861 42.944L33.6257 37.1837C33.4906 37.0483 33.4148 36.8648 33.4148 36.6735C33.4148 36.4822 33.4906 36.2987 33.6257 36.1633L36.164 33.625C36.2994 33.4899 36.4829 33.4141 36.6742 33.4141C36.8655 33.4141 37.049 33.4899 37.1844 33.625L42.9448 39.3854C43.4162 39.8575 43.6811 40.4975 43.6811 41.1647C43.6811 41.832 43.4162 42.4719 42.9448 42.944ZM26.0232 14.1502H23.2986V13.1368C23.2981 12.6453 23.1028 12.1741 22.7556 11.8263C22.4083 11.4785 21.9373 11.2826 21.4458 11.2814H16.2779C15.7859 11.2819 15.3143 11.4775 14.9664 11.8254C14.6186 12.1732 14.423 12.6449 14.4225 13.1368V14.1502H11.6979C11.2362 14.1504 10.7935 14.3339 10.467 14.6604C10.1405 14.9869 9.95701 15.4296 9.95678 15.8913V24.6971C9.95701 25.1589 10.1405 25.6017 10.4669 25.9283C10.7934 26.2549 11.2361 26.4386 11.6979 26.4391H26.0241C26.4858 26.4384 26.9284 26.2546 27.2548 25.928C27.5811 25.6015 27.7647 25.1588 27.7652 24.6971V15.8913C27.7647 15.4295 27.581 14.9868 27.2544 14.6604C26.9278 14.3339 26.485 14.1504 26.0232 14.1502ZM15.74 13.1368C15.7402 12.9945 15.7969 12.858 15.8975 12.7573C15.9982 12.6567 16.1346 12.6 16.277 12.5998H21.4458C21.5882 12.6 21.7246 12.6567 21.8253 12.7573C21.926 12.858 21.9826 12.9945 21.9828 13.1368V14.1502H15.7426L15.74 13.1368ZM26.4468 24.6971C26.4468 24.8094 26.4022 24.9172 26.3227 24.9966C26.2433 25.0761 26.1355 25.1207 26.0232 25.1207H11.697C11.5848 25.1205 11.4773 25.0757 11.398 24.9963C11.3188 24.9169 11.2743 24.8093 11.2743 24.6971V19.1072L16.8817 21.5479V21.9769C16.8821 22.3147 17.0166 22.6386 17.2555 22.8775C17.4944 23.1164 17.8182 23.2508 18.1561 23.2513H19.5623C19.9002 23.2508 20.2241 23.1164 20.463 22.8775C20.7019 22.6386 20.8363 22.3147 20.8368 21.9769V21.5479L26.4468 19.1072V24.6971ZM18.2018 21.9329V20.6146H19.5202V21.9329H18.2018ZM26.4468 17.6658L20.7629 20.1391C20.6747 19.8916 20.5122 19.6775 20.2976 19.526C20.083 19.3745 19.8268 19.293 19.5641 19.2927H18.1578C17.8955 19.2944 17.6402 19.3769 17.4264 19.529C17.2127 19.6811 17.051 19.8953 16.9634 20.1426L11.276 17.6658V15.8913C11.2762 15.7793 11.3209 15.6719 11.4001 15.5926C11.4793 15.5134 11.5867 15.4688 11.6988 15.4686H26.0249C26.1371 15.4686 26.2448 15.5131 26.3242 15.5923C26.4036 15.6716 26.4483 15.7791 26.4486 15.8913L26.4468 17.6658ZM29.6891 8.03212C23.7187 2.06171 14.0033 2.06171 8.03285 8.03212C5.16106 10.9039 3.5477 14.7989 3.5477 18.8603C3.5477 22.9216 5.16106 26.8166 8.03285 29.6884C10.9046 32.5602 14.7996 34.1735 18.861 34.1735C22.9223 34.1735 26.8173 32.5602 29.6891 29.6884C31.1111 28.2664 32.2391 26.5783 33.0086 24.7204C33.7782 22.8625 34.1743 20.8712 34.1743 18.8603C34.1743 16.8493 33.7782 14.858 33.0086 13.0001C32.2391 11.1422 31.1111 9.45409 29.6891 8.03212ZM28.7575 28.7567C26.468 31.0468 23.4552 32.4721 20.2326 32.7899C17.01 33.1076 13.7769 32.2981 11.0843 30.4993C8.39161 28.7005 6.40597 26.0237 5.46569 22.925C4.52541 19.8263 4.68866 16.4974 5.92764 13.5056C7.16662 10.5138 9.40466 8.04408 12.2604 6.51739C15.1162 4.9907 18.4129 4.50145 21.589 5.13301C24.765 5.76457 27.6238 7.47785 29.6783 9.98094C31.7327 12.484 32.8557 15.622 32.8558 18.8603C32.8582 20.6985 32.4974 22.5191 31.7941 24.2174C31.0908 25.9158 30.0588 27.4584 28.7575 28.7567Z" fill="#676E87"/>
</g>
<defs>
<clipPath id="clip0_645_2207">
<rect width="45" height="45" fill="white"/>
</clipPath>
</defs>
</svg>
