<svg width="55" height="55" viewBox="0 0 55 55" fill="none" xmlns="http://www.w3.org/2000/svg">
<circle cx="27.5" cy="27.5" r="27.5" fill="#0F172A"/>
<path d="M21.7812 19.2344C21.7812 16.2917 24.1667 13.9062 27.1094 13.9062C30.052 13.9062 32.4375 16.2917 32.4375 19.2344C32.4375 22.177 30.052 24.5625 27.1094 24.5625C24.1667 24.5625 21.7812 22.177 21.7812 19.2344Z" fill="white"/>
<path d="M17.9062 35.7031C17.9062 30.6204 22.0266 26.5 27.1094 26.5C32.1921 26.5 36.3125 30.6204 36.3125 35.7031V35.7064C36.3125 35.7578 36.312 35.8095 36.3112 35.8606C36.3056 36.1945 36.1284 36.502 35.8423 36.6743C33.2909 38.2104 30.3018 39.0938 27.1094 39.0938C23.9169 39.0938 20.9278 38.2104 18.3765 36.6743C18.0904 36.502 17.9132 36.1945 17.9076 35.8606C17.9067 35.8083 17.9062 35.7558 17.9062 35.7031Z" fill="white"/>
<path d="M39.2188 20.6875C39.2188 20.1525 38.785 19.7188 38.25 19.7188C37.715 19.7188 37.2812 20.1525 37.2812 20.6875V23.5938H34.375C33.84 23.5938 33.4062 24.0275 33.4062 24.5625C33.4062 25.0975 33.84 25.5312 34.375 25.5312H37.2812V28.4375C37.2812 28.9725 37.715 29.4062 38.25 29.4062C38.785 29.4062 39.2188 28.9725 39.2188 28.4375V25.5312H42.125C42.66 25.5312 43.0938 25.0975 43.0938 24.5625C43.0938 24.0275 42.66 23.5938 42.125 23.5938H39.2188V20.6875Z" fill="white"/>
</svg>
