<svg width="884" height="860" viewBox="0 0 884 860" fill="none" xmlns="http://www.w3.org/2000/svg">
<g clip-path="url(#clip0_660_113)">
<mask id="mask0_660_113" style="mask-type:luminance" maskUnits="userSpaceOnUse" x="0" y="-190" width="1354" height="1050">
<path d="M1354 -190H0V860H1354V-190Z" fill="white"/>
</mask>
<g mask="url(#mask0_660_113)">
<path d="M1354 -190H0V860H1354V-190Z" fill="#DCDCDB"/>
<mask id="mask1_660_113" style="mask-type:alpha" maskUnits="userSpaceOnUse" x="0" y="-190" width="1354" height="1050">
<path d="M1354 -190H0V860H1354V-190Z" fill="#EAE8E4"/>
</mask>
<g mask="url(#mask1_660_113)">
<path fill-rule="evenodd" clip-rule="evenodd" d="M1354 -190V860H854.659L301.265 156.561L732.218 -190H1354Z" fill="#EAE8E4"/>
</g>
<mask id="mask2_660_113" style="mask-type:alpha" maskUnits="userSpaceOnUse" x="0" y="-190" width="1354" height="1050">
<path d="M1354 -190H0V860H1354V-190Z" fill="#BFCBBA"/>
</mask>
<g mask="url(#mask2_660_113)">
<path d="M380.813 390.125C497.189 390.125 591.53 292.579 591.53 172.25C591.53 51.9209 497.189 -45.625 380.813 -45.625C264.438 -45.625 170.097 51.9209 170.097 172.25C170.097 292.579 264.438 390.125 380.813 390.125Z" fill="#BFCBBA"/>
</g>
<mask id="mask3_660_113" style="mask-type:alpha" maskUnits="userSpaceOnUse" x="0" y="-190" width="1354" height="1050">
<path d="M1354 -190H0V860H1354V-190Z" fill="#DC4618"/>
</mask>
<g mask="url(#mask3_660_113)">
<path d="M1236.69 -85.2051L805.965 172.812L839.968 233.499L1270.7 -24.5185L1236.69 -85.2051Z" fill="#DC4618"/>
</g>
<mask id="mask4_660_113" style="mask-type:alpha" maskUnits="userSpaceOnUse" x="0" y="-190" width="1354" height="1050">
<path d="M1354 -190H0V860H1354V-190Z" fill="#DC4618"/>
</mask>
<g mask="url(#mask4_660_113)">
<path fill-rule="evenodd" clip-rule="evenodd" d="M738.962 594.29L564.714 372.5L522.719 401.339L697.073 628.812L738.962 594.29Z" fill="#DC4618"/>
</g>
<mask id="mask5_660_113" style="mask-type:alpha" maskUnits="userSpaceOnUse" x="0" y="-190" width="1354" height="1050">
<path d="M1354 -190H0V860H1354V-190Z" fill="#EAE8E4"/>
</mask>
<g mask="url(#mask5_660_113)">
<path fill-rule="evenodd" clip-rule="evenodd" d="M144.898 670.381L350.698 514.919L331.794 486.79L123.189 626.286L144.898 670.381Z" fill="#EAE8E4"/>
</g>
<mask id="mask6_660_113" style="mask-type:alpha" maskUnits="userSpaceOnUse" x="0" y="-190" width="1354" height="1050">
<path d="M1354 -190H0V860H1354V-190Z" fill="#60BEBF"/>
</mask>
<g mask="url(#mask6_660_113)">
<path d="M594.643 653.538L517.841 535.375L500.133 547.68L576.936 665.842L594.643 653.538Z" fill="#60BEBF"/>
</g>
<mask id="mask7_660_113" style="mask-type:alpha" maskUnits="userSpaceOnUse" x="0" y="-190" width="1354" height="1050">
<path d="M1354 -190H0V860H1354V-190Z" fill="#3A8EAA"/>
</mask>
<g mask="url(#mask7_660_113)">
<path fill-rule="evenodd" clip-rule="evenodd" d="M699.515 415.501L619.466 314.711L585.381 335L663.385 445.165L699.515 415.501Z" fill="#3A8EAA"/>
</g>
<mask id="mask8_660_113" style="mask-type:alpha" maskUnits="userSpaceOnUse" x="0" y="-190" width="1354" height="1050">
<path d="M1354 -190H0V860H1354V-190Z" fill="#2A3E4C"/>
</mask>
<g mask="url(#mask8_660_113)">
<path fill-rule="evenodd" clip-rule="evenodd" d="M1263.06 -340.775L432.864 259.669L473.794 314.971L1334.5 -249.036L1263.06 -340.775Z" fill="#2A3E4C"/>
</g>
<mask id="mask9_660_113" style="mask-type:alpha" maskUnits="userSpaceOnUse" x="0" y="-190" width="1354" height="1050">
<path d="M1354 -190H0V860H1354V-190Z" fill="#E5AB17"/>
</mask>
<g mask="url(#mask9_660_113)">
<path fill-rule="evenodd" clip-rule="evenodd" d="M485.219 325.71L772.5 163.267L793.191 201.796L509.337 362.645L485.219 325.71Z" fill="#E5AB17"/>
</g>
<mask id="mask10_660_113" style="mask-type:alpha" maskUnits="userSpaceOnUse" x="0" y="-190" width="1354" height="1050">
<path d="M1354 -190H0V860H1354V-190Z" fill="#EAE8E4"/>
</mask>
<g mask="url(#mask10_660_113)">
<path d="M342.868 565.125L96.4727 779.215L123.893 812.954L370.289 598.865L342.868 565.125Z" fill="#EAE8E4"/>
</g>
<mask id="mask11_660_113" style="mask-type:alpha" maskUnits="userSpaceOnUse" x="0" y="-190" width="1354" height="1050">
<path d="M1354 -190H0V860H1354V-190Z" fill="#E5AB17"/>
</mask>
<g mask="url(#mask11_660_113)">
<path fill-rule="evenodd" clip-rule="evenodd" d="M267.286 605.806L370.01 520.982L389.536 543.2L286.812 628.024L267.286 605.806Z" fill="#E5AB17"/>
</g>
<mask id="mask12_660_113" style="mask-type:alpha" maskUnits="userSpaceOnUse" x="0" y="-190" width="1354" height="1050">
<path d="M1354 -190H0V860H1354V-190Z" fill="#28203D"/>
</mask>
<g mask="url(#mask12_660_113)">
<path d="M701.072 653.789L202.145 4.25L187.972 15.8884L686.899 665.427L701.072 653.789Z" fill="#28203D"/>
</g>
<mask id="mask13_660_113" style="mask-type:alpha" maskUnits="userSpaceOnUse" x="0" y="-190" width="1354" height="1050">
<path d="M1354 -190H0V860H1354V-190Z" fill="#849C9B"/>
</mask>
<g mask="url(#mask13_660_113)">
<path fill-rule="evenodd" clip-rule="evenodd" d="M528.616 486.444L193.172 65.8223L140.653 101.17L470.747 531.362L528.616 486.444Z" fill="#849C9B"/>
</g>
<mask id="mask14_660_113" style="mask-type:alpha" maskUnits="userSpaceOnUse" x="0" y="-190" width="1354" height="1050">
<path d="M1354 -190H0V860H1354V-190Z" fill="#849C9B"/>
</mask>
<g mask="url(#mask14_660_113)">
<path d="M847.427 475.085C865.269 470.66 876.282 452.198 872.025 433.849C867.769 415.5 849.854 404.213 832.012 408.638C814.17 413.063 803.157 431.525 807.413 449.874C811.67 468.223 829.585 479.511 847.427 475.085Z" fill="#849C9B"/>
</g>
<mask id="mask15_660_113" style="mask-type:alpha" maskUnits="userSpaceOnUse" x="0" y="-190" width="1354" height="1050">
<path d="M1354 -190H0V860H1354V-190Z" fill="#EAE8E4"/>
</mask>
<g mask="url(#mask15_660_113)">
<path d="M158.717 469.093C190.848 461.124 210.681 427.876 203.016 394.832C195.35 361.787 163.088 341.46 130.956 349.429C98.8248 357.398 78.9914 390.646 86.6572 423.69C94.3229 456.734 126.585 477.062 158.717 469.093Z" fill="#EAE8E4"/>
</g>
<mask id="mask16_660_113" style="mask-type:alpha" maskUnits="userSpaceOnUse" x="0" y="-190" width="1354" height="1050">
<path d="M1354 -190H0V860H1354V-190Z" fill="#DC4618"/>
</mask>
<g mask="url(#mask16_660_113)">
<path d="M417.257 206.088C431.236 202.621 439.865 188.156 436.53 173.78C433.195 159.404 419.159 150.56 405.18 154.027C391.2 157.494 382.572 171.959 385.907 186.335C389.242 200.711 403.278 209.555 417.257 206.088Z" fill="#DC4618"/>
</g>
<mask id="mask17_660_113" style="mask-type:alpha" maskUnits="userSpaceOnUse" x="0" y="-190" width="1354" height="1050">
<path d="M1354 -190H0V860H1354V-190Z" fill="#BFCBBA"/>
</mask>
<g mask="url(#mask17_660_113)">
<path d="M275.879 467.875C289.79 464.425 298.377 450.031 295.058 435.724C291.739 421.418 277.771 412.617 263.86 416.067C249.949 419.518 241.362 433.912 244.681 448.218C248 462.525 261.968 471.325 275.879 467.875Z" fill="#BFCBBA"/>
</g>
<mask id="mask18_660_113" style="mask-type:alpha" maskUnits="userSpaceOnUse" x="0" y="-190" width="1354" height="1050">
<path d="M1354 -190H0V860H1354V-190Z" fill="#28203D"/>
</mask>
<g mask="url(#mask18_660_113)">
<path d="M430.003 234.518L666.79 65.4657L664.783 62.46L427.996 231.512L430.003 234.518Z" fill="#28203D"/>
</g>
<mask id="mask19_660_113" style="mask-type:alpha" maskUnits="userSpaceOnUse" x="0" y="-190" width="1354" height="1050">
<path d="M1354 -190H0V860H1354V-190Z" fill="#28203D"/>
</mask>
<g mask="url(#mask19_660_113)">
<path d="M139.099 -128.213L261.631 29.9954L264.388 27.7122L141.856 -130.496L139.099 -128.213Z" fill="#28203D"/>
</g>
<mask id="mask20_660_113" style="mask-type:alpha" maskUnits="userSpaceOnUse" x="0" y="-190" width="1354" height="1050">
<path d="M1354 -190H0V860H1354V-190Z" fill="#28203D"/>
</mask>
<g mask="url(#mask20_660_113)">
<path d="M221.816 637.578L66.1523 767.721L68.3735 770.561L224.037 640.418L221.816 637.578Z" fill="#28203D"/>
</g>
<mask id="mask21_660_113" style="mask-type:alpha" maskUnits="userSpaceOnUse" x="0" y="-190" width="1354" height="1050">
<path d="M1354 -190H0V860H1354V-190Z" fill="#DC4618"/>
</mask>
<g mask="url(#mask21_660_113)">
<path fill-rule="evenodd" clip-rule="evenodd" d="M143.829 405.449L126.923 385.339L128.435 383.98L145.341 404.09L164.79 386.609L166.105 388.172L146.656 405.653L163.563 425.763L162.051 427.122L145.144 407.012L125.695 424.493L124.38 422.93L143.829 405.449Z" fill="#DC4618"/>
</g>
</g>
</g>
<defs>
<clipPath id="clip0_660_113">
<path d="M0 0H869C877.284 0 884 6.71573 884 15V845C884 853.284 877.284 860 869 860H0V0Z" fill="white"/>
</clipPath>
</defs>
</svg>
