<svg width="43" height="43" viewBox="0 0 43 43" fill="none" xmlns="http://www.w3.org/2000/svg">
<g clip-path="url(#clip0_645_2229)">
<path d="M37.7322 6.37919H35.2192V3.99414C35.2348 3.04032 34.8716 2.11922 34.2091 1.43278C33.5467 0.746351 32.6391 0.350599 31.6853 0.332291H29.7835C29.6191 -0.601318 29.1309 -1.44712 28.4048 -2.05654C27.6786 -2.66595 26.761 -3 25.813 -3C24.865 -3 23.9473 -2.66595 23.2212 -2.05654C22.495 -1.44712 22.0069 -0.601318 21.8424 0.332291H10.5344C9.58061 0.3506 8.67301 0.746353 8.01056 1.43279C7.34811 2.11922 6.98487 3.04032 7.00048 3.99414V30.2642C6.98487 31.218 7.34811 32.1391 8.01056 32.8256C8.67301 33.512 9.58061 33.9078 10.5344 33.9261H13.0474V36.3111C13.0317 37.2649 13.395 38.186 14.0574 38.8724C14.7199 39.5589 15.6275 39.9546 16.5813 39.9729H37.7322C38.686 39.9546 39.5936 39.5589 40.256 38.8724C40.9185 38.186 41.2817 37.2649 41.2661 36.3111V10.041C41.2817 9.0872 40.9185 8.1661 40.256 7.47967C39.5936 6.79324 38.686 6.39749 37.7322 6.37919ZM25.813 -0.339564C26.166 -0.33444 26.5028 -0.190609 26.7506 0.0608423C26.9985 0.312294 27.1374 0.651166 27.1374 1.00422C27.1374 1.35726 26.9984 1.69613 26.7506 1.94757C26.5028 2.19901 26.1659 2.34283 25.8129 2.34794C25.4599 2.34281 25.1231 2.19898 24.8753 1.94753C24.6274 1.69608 24.4885 1.3572 24.4885 1.00416C24.4885 0.651107 24.6275 0.31224 24.8753 0.0608003C25.1231 -0.19064 25.46 -0.334456 25.813 -0.339564ZM10.5344 31.2386C10.2935 31.2202 10.0695 31.1076 9.91107 30.9252C9.75263 30.7428 9.67247 30.5053 9.68798 30.2642V3.99414C9.67247 3.75304 9.75263 3.51553 9.91107 3.33313C10.0695 3.15073 10.2935 3.03815 10.5344 3.01979H21.8972L19.4879 5.42909C19.242 5.68232 19.1056 6.02213 19.1082 6.37511C19.1108 6.72808 19.2521 7.06586 19.5017 7.31545C19.7513 7.56505 20.0891 7.7064 20.4421 7.70898C20.7951 7.71155 21.1349 7.57513 21.3881 7.3292L24.0792 4.63805C24.9943 5.06851 26.0372 5.14114 27.003 4.84169C27.9689 4.54223 28.7878 3.89233 29.2988 3.01974L31.6853 3.01979C31.9262 3.03814 32.1502 3.15072 32.3086 3.33312C32.4671 3.51552 32.5472 3.75303 32.5317 3.99414V30.2642C32.5472 30.5053 32.4671 30.7428 32.3086 30.9252C32.1502 31.1076 31.9262 31.2202 31.6853 31.2386H10.5344ZM38.5786 36.3111C38.5941 36.5522 38.514 36.7897 38.3555 36.9721C38.1971 37.1545 37.9731 37.2671 37.7322 37.2854H16.5813C16.3404 37.2671 16.1164 37.1545 15.9579 36.9721C15.7995 36.7897 15.7193 36.5522 15.7349 36.3111V33.9261H31.6853C32.6391 33.9078 33.5467 33.512 34.2091 32.8256C34.8716 32.1391 35.2348 31.218 35.2192 30.2642V9.06669H37.7322C37.9731 9.08504 38.1971 9.19763 38.3555 9.38002C38.5139 9.56241 38.5941 9.79991 38.5786 10.041V36.3111Z" fill="#5C7985"/>
<path d="M28.3402 9.98633H13.9245C13.5802 9.9923 13.2517 10.1598 13.01 10.4527C12.7683 10.7456 12.6328 11.1403 12.6328 11.5516C12.6328 11.9628 12.7683 12.3575 13.01 12.6504C13.2517 12.9433 13.5802 13.1108 13.9245 13.1168H28.3402C28.6845 13.1108 29.013 12.9433 29.2547 12.6504C29.4964 12.3575 29.6319 11.9628 29.6319 11.5515C29.6319 11.1403 29.4964 10.7456 29.2547 10.4527C29.013 10.1598 28.6845 9.99229 28.3402 9.98633ZM28.3402 17.8124H13.9245C13.5802 17.8184 13.2517 17.9859 13.01 18.2788C12.7683 18.5717 12.6328 18.9664 12.6328 19.3777C12.6328 19.7889 12.7683 20.1836 13.01 20.4765C13.2517 20.7694 13.5802 20.9369 13.9245 20.9429H28.3402C28.6845 20.9369 29.013 20.7694 29.2547 20.4765C29.4964 20.1836 29.6319 19.7889 29.6319 19.3776C29.6319 18.9664 29.4964 18.5717 29.2547 18.2788C29.013 17.9859 28.6845 17.8184 28.3402 17.8124ZM28.3402 24.8559C27.9958 24.8616 27.667 25.029 27.4251 25.3219C27.1833 25.6148 27.0476 26.0097 27.0476 26.4211C27.0477 26.8326 27.1833 27.2274 27.4252 27.5204C27.6671 27.8133 27.9958 27.9807 28.3403 27.9863C28.6847 27.9806 29.0134 27.8132 29.2553 27.5203C29.4972 27.2274 29.6328 26.8325 29.6328 26.4211C29.6328 26.0097 29.4972 25.6148 29.2553 25.3219C29.0134 25.0289 28.6846 24.8616 28.3402 24.8559ZM23.0981 24.8559C22.7538 24.8619 22.4253 25.0294 22.1836 25.3223C21.942 25.6152 21.8065 26.0099 21.8065 26.4211C21.8065 26.8324 21.942 27.2271 22.1837 27.52C22.4254 27.8129 22.7539 27.9804 23.0982 27.9863C23.4425 27.9804 23.7709 27.8128 24.0126 27.5199C24.2543 27.227 24.3898 26.8323 24.3898 26.4211C24.3898 26.0098 24.2543 25.6151 24.0126 25.3222C23.7709 25.0294 23.4424 24.8618 23.0981 24.8559Z" fill="#5C7985"/>
</g>
<defs>
<clipPath id="clip0_645_2229">
<rect width="43" height="43" fill="white"/>
</clipPath>
</defs>
</svg>
