<svg width="1920" height="208" viewBox="0 0 1920 208" fill="none" xmlns="http://www.w3.org/2000/svg">
<g clip-path="url(#clip0_666_2)">
<path d="M413.741 103.823V0.258789L310.176 0.258789V103.823L413.741 103.823Z" fill="#8BAFBB"/>
<path d="M320.029 52.0509C320.029 75.5144 338.812 94.5354 361.982 94.5354C385.152 94.5354 403.935 75.5144 403.935 52.0509C403.935 28.5874 385.152 9.56641 361.982 9.56641C338.812 9.56641 320.029 28.5874 320.029 52.0509Z" fill="#5C7985"/>
<path d="M361.959 103.823V0.258789L310.177 0.258789V103.823L361.959 103.823Z" fill="#2A3E4C"/>
<mask id="mask0_666_2" style="mask-type:alpha" maskUnits="userSpaceOnUse" x="310" y="0" width="52" height="104">
<path d="M361.959 103.823V0.258789L310.177 0.258789V103.823L361.959 103.823Z" fill="white"/>
</mask>
<g mask="url(#mask0_666_2)">
<path d="M320.023 52.0086C320.023 75.4456 338.787 94.445 361.934 94.445C385.081 94.445 403.845 75.4456 403.845 52.0086C403.845 28.5717 385.081 9.57227 361.934 9.57227C338.787 9.57227 320.023 28.5717 320.023 52.0086Z" fill="white"/>
</g>
<path d="M517.306 -103.305V0.259766L620.87 0.259766V-103.305H517.306Z" fill="#8BAFBB"/>
<path d="M569.089 -103.305V0.259766L620.871 0.259766V-103.305H569.089Z" fill="#F5E304"/>
<path d="M206.612 -103.306L310.177 -103.306V0.259026L206.612 0.259026V-103.306Z" fill="white"/>
<path d="M206.718 -91.3955V-28.3267C206.718 -12.5975 219.469 0.153618 235.198 0.153618L298.267 0.153618C298.267 -50.4076 257.279 -91.3955 206.718 -91.3955Z" fill="#5C7985"/>
<path d="M310.177 103.823H206.612V0.258553H310.177V103.823Z" fill="#C0E1DD"/>
<path d="M258.538 22.5744C275.049 22.5744 288.434 35.9595 288.434 52.4708C288.434 68.9821 275.049 82.3672 258.538 82.3672C242.027 82.3672 228.642 68.9821 228.642 52.4708C228.642 35.9595 242.027 22.5744 258.538 22.5744Z" fill="white"/>
<path d="M259.091 52.6726H266.691V51.8439H259.091V44.3168H258.133V51.8439H250.67V52.6726H258.133V60.3379H259.091V52.6726Z" fill="#5C7985"/>
<path d="M413.742 207.389H310.177V103.824H413.742V207.389Z" fill="#5C7985"/>
<path d="M310.177 207.389H206.612V103.824H310.177V207.389Z" fill="#A3CEC1"/>
<path d="M309.891 207.103C309.891 150.063 263.652 103.824 206.612 103.824H206.612C206.612 160.863 252.852 207.103 309.891 207.103Z" fill="#849C9B"/>
<path d="M206.612 207.389H103.047V103.824H206.612V207.389Z" fill="#A3CEC1"/>
<path d="M111.85 207.389H197.963V155.749C197.963 131.97 178.686 112.693 154.906 112.693C131.127 112.693 111.85 131.97 111.85 155.749V207.389Z" fill="#2A3E4C"/>
<path d="M103.048 -103.306L206.612 -103.306V0.259026L103.048 0.259026L103.048 -103.306Z" fill="#C0E1DD"/>
<path d="M103.048 0.258789V-51.5236C103.048 -80.1222 126.231 -103.306 154.83 -103.306H206.612C206.612 -46.1087 160.245 0.258789 103.048 0.258789Z" fill="#95C3B4"/>
<path d="M620.871 103.823L724.436 103.823V207.388H620.871V103.823Z" fill="#C0E1DD"/>
<path d="M620.871 207.389V155.606C620.871 127.008 644.055 103.824 672.653 103.824H724.436C724.436 161.021 678.068 207.389 620.871 207.389Z" fill="#95C3B4"/>
<path d="M103.047 103.823H-0.517578V0.258553H103.047V103.823Z" fill="#2A3E4C"/>
<path d="M413.742 0.259766H310.177V-103.305H413.742V0.259766Z" fill="#A3CEC1"/>
<path d="M310.176 0.259766C310.176 -56.9374 356.544 -103.305 413.741 -103.305C413.741 -46.1077 367.374 0.259766 310.176 0.259766Z" fill="#C0E1DD"/>
<path d="M620.87 103.823H517.306V0.258553H620.87V103.823Z" fill="#95C3B4"/>
<mask id="mask1_666_2" style="mask-type:alpha" maskUnits="userSpaceOnUse" x="517" y="0" width="104" height="104">
<path d="M620.87 103.823H517.306V0.258553H620.87V103.823Z" fill="#5C7985"/>
</mask>
<g mask="url(#mask1_666_2)">
<path d="M620.728 -26.3467C635.343 -26.3467 647.191 -14.4986 647.191 0.11668C647.191 14.732 635.343 26.5801 620.728 26.5801C606.113 26.5801 594.265 14.732 594.265 0.11668C594.265 -14.4986 606.113 -26.3467 620.728 -26.3467Z" fill="#5C7985"/>
</g>
<mask id="mask2_666_2" style="mask-type:alpha" maskUnits="userSpaceOnUse" x="517" y="0" width="104" height="104">
<path d="M620.87 103.823H517.306V0.258553H620.87V103.823Z" fill="#5C7985"/>
</mask>
<g mask="url(#mask2_666_2)">
<path d="M517.164 77.5039C531.779 77.5039 543.627 89.3519 543.627 103.967C543.627 118.583 531.779 130.431 517.164 130.431C502.548 130.431 490.7 118.583 490.7 103.967C490.7 89.3519 502.548 77.5039 517.164 77.5039Z" fill="#5C7985"/>
</g>
<path d="M103.047 -103.306L-0.517899 -103.306L-0.517899 0.259026L103.047 0.259026L103.047 -103.306Z" fill="white"/>
<path d="M74.5666 -103.306L-0.517899 -103.306C-0.517899 -46.1085 45.8496 0.259026 103.047 0.259026L103.047 -74.8254C103.047 -90.5546 90.2958 -103.306 74.5666 -103.306Z" fill="#FF7E6F"/>
<path d="M413.741 0.259026V-103.306L517.306 -103.306V0.259026L413.741 0.259026Z" fill="#5C7985"/>
<path d="M620.871 103.823V0.258789L724.436 0.258789V103.823L620.871 103.823Z" fill="#C0E1DD"/>
<path d="M680.664 51.8987C680.664 56.4018 677.013 60.0522 672.51 60.0522C668.007 60.0522 664.356 56.4018 664.356 51.8987C664.356 47.3956 668.007 43.7451 672.51 43.7451C677.013 43.7451 680.664 47.3956 680.664 51.8987Z" fill="#FF7E6F"/>
<path d="M-0.517578 207.388L-0.517578 103.823L103.047 103.823L103.047 207.388H-0.517578Z" fill="#C0E1DD"/>
<path d="M59.2749 155.463C59.2749 159.966 55.6244 163.617 51.1213 163.617C46.6183 163.617 42.9678 159.966 42.9678 155.463C42.9678 150.96 46.6183 147.31 51.1213 147.31C55.6244 147.31 59.2749 150.96 59.2749 155.463Z" fill="#FF7E6F"/>
<path d="M620.871 0.259026V-103.306L724.436 -103.306V0.259026L620.871 0.259026Z" fill="#A3CEC1"/>
<path d="M620.871 -103.306C678.068 -103.306 724.436 -56.9384 724.436 0.258789C667.239 0.258789 620.871 -46.1087 620.871 -103.306Z" fill="#C0E1DD"/>
<path d="M103.047 0.258553V103.823H206.612V0.258553H103.047Z" fill="white"/>
<path d="M114.957 0.364937H178.026C193.755 0.364937 206.506 13.116 206.506 28.8453V91.9141C155.945 91.9141 114.957 50.9261 114.957 0.364937Z" fill="#5C7985"/>
<path d="M198.844 17.8543C198.844 13.3512 195.194 9.70068 190.691 9.70068C186.188 9.70068 182.537 13.3512 182.537 17.8543C182.537 22.3573 186.188 26.0078 190.691 26.0078C195.194 26.0078 198.844 22.3573 198.844 17.8543Z" fill="#FF7E6F"/>
<path d="M620.87 103.823H517.306V207.388H620.87V103.823Z" fill="#C0E1DD"/>
<path d="M569.231 185.073C585.743 185.073 599.128 171.688 599.128 155.177C599.128 138.665 585.743 125.28 569.231 125.28C552.72 125.28 539.335 138.665 539.335 155.177C539.335 171.688 552.72 185.073 569.231 185.073Z" fill="white"/>
<path d="M569.786 154.975H577.385V155.804H569.786V163.331H568.827V155.804H561.364V154.975H568.827V147.31H569.786V154.975Z" fill="#5C7985"/>
<path d="M517.306 207.388V103.823L413.741 103.823V207.388H517.306Z" fill="#A3CEC1"/>
<path d="M517.021 207.103C459.981 207.103 413.742 160.863 413.742 103.824V103.824C470.781 103.824 517.021 150.064 517.021 207.103Z" fill="#EAE8E4"/>
<path d="M517.306 0.258789H413.741V103.823H517.306V0.258789Z" fill="#849C9B"/>
<mask id="mask3_666_2" style="mask-type:alpha" maskUnits="userSpaceOnUse" x="413" y="0" width="105" height="104">
<path d="M517.306 0.258789H413.741V103.823H517.306V0.258789Z" fill="white"/>
</mask>
<g mask="url(#mask3_666_2)">
<path d="M517.163 130.43C531.778 130.43 543.626 118.582 543.626 103.966C543.626 89.351 531.778 77.5029 517.163 77.5029C502.547 77.5029 490.699 89.351 490.699 103.966C490.699 118.582 502.547 130.43 517.163 130.43Z" fill="white"/>
</g>
<mask id="mask4_666_2" style="mask-type:alpha" maskUnits="userSpaceOnUse" x="413" y="0" width="105" height="104">
<path d="M517.306 0.258789H413.741V103.823H517.306V0.258789Z" fill="white"/>
</mask>
<g mask="url(#mask4_666_2)">
<path d="M413.598 26.5791C428.213 26.5791 440.062 14.7311 440.062 0.115738C440.062 -14.4996 428.213 -26.3477 413.598 -26.3477C398.983 -26.3477 387.135 -14.4996 387.135 0.115738C387.135 14.7311 398.983 26.5791 413.598 26.5791Z" fill="white"/>
</g>
<path d="M828.004 0.258789H724.439V103.823H828.004V0.258789Z" fill="#8BAFBB"/>
<path d="M776.244 92.9671C799.708 92.9671 818.729 74.1842 818.729 51.0143C818.729 27.8444 799.708 9.06152 776.244 9.06152C752.781 9.06152 733.76 27.8444 733.76 51.0143C733.76 74.1842 752.781 92.9671 776.244 92.9671Z" fill="#5C7985"/>
<path d="M828.003 51.9062H724.438V103.689H828.003V51.9062Z" fill="#2A3E4C"/>
<mask id="mask5_666_2" style="mask-type:alpha" maskUnits="userSpaceOnUse" x="724" y="51" width="105" height="53">
<path d="M828.003 51.9062H724.438V103.689H828.003V51.9062Z" fill="white"/>
</mask>
<g mask="url(#mask5_666_2)">
<path d="M776.196 93.785C799.633 93.785 818.632 75.0207 818.632 51.8739C818.632 28.7271 799.633 9.96289 776.196 9.96289C752.759 9.96289 733.76 28.7271 733.76 51.8739C733.76 75.0207 752.759 93.785 776.196 93.785Z" fill="white"/>
</g>
<path d="M828 207.389H724.436V103.824H828V207.389Z" fill="#5C7985"/>
<path d="M828.003 0.259766H724.438V-103.305H828.003V0.259766Z" fill="#A3CEC1"/>
<path d="M724.437 0.259766C724.437 -56.9374 770.805 -103.305 828.002 -103.305C828.002 -46.1077 781.634 0.259766 724.437 0.259766Z" fill="#C0E1DD"/>
</g>
<g clip-path="url(#clip1_666_2)">
<path d="M1239.74 103.823V0.258789L1136.18 0.258789V103.823L1239.74 103.823Z" fill="#8BAFBB"/>
<path d="M1146.03 52.0509C1146.03 75.5144 1164.81 94.5354 1187.98 94.5354C1211.15 94.5354 1229.93 75.5144 1229.93 52.0509C1229.93 28.5874 1211.15 9.56641 1187.98 9.56641C1164.81 9.56641 1146.03 28.5874 1146.03 52.0509Z" fill="#5C7985"/>
<path d="M1187.96 103.823V0.258789L1136.18 0.258789V103.823L1187.96 103.823Z" fill="#2A3E4C"/>
<mask id="mask6_666_2" style="mask-type:alpha" maskUnits="userSpaceOnUse" x="1136" y="0" width="52" height="104">
<path d="M1187.96 103.823V0.258789L1136.18 0.258789V103.823L1187.96 103.823Z" fill="white"/>
</mask>
<g mask="url(#mask6_666_2)">
<path d="M1146.02 52.0086C1146.02 75.4456 1164.79 94.445 1187.93 94.445C1211.08 94.445 1229.84 75.4456 1229.84 52.0086C1229.84 28.5717 1211.08 9.57227 1187.93 9.57227C1164.79 9.57227 1146.02 28.5717 1146.02 52.0086Z" fill="white"/>
</g>
<path d="M1343.31 -103.305V0.259766L1446.87 0.259766V-103.305H1343.31Z" fill="#8BAFBB"/>
<path d="M1395.09 -103.305V0.259766L1446.87 0.259766V-103.305H1395.09Z" fill="#F5E304"/>
<path d="M1032.61 -103.306L1136.18 -103.306V0.259026L1032.61 0.259026V-103.306Z" fill="white"/>
<path d="M1032.72 -91.3955V-28.3267C1032.72 -12.5975 1045.47 0.153618 1061.2 0.153618L1124.27 0.153618C1124.27 -50.4076 1083.28 -91.3955 1032.72 -91.3955Z" fill="#5C7985"/>
<path d="M1136.18 103.823H1032.61V0.258553H1136.18V103.823Z" fill="#C0E1DD"/>
<path d="M1084.54 22.5744C1101.05 22.5744 1114.43 35.9595 1114.43 52.4708C1114.43 68.9821 1101.05 82.3672 1084.54 82.3672C1068.03 82.3672 1054.64 68.9821 1054.64 52.4708C1054.64 35.9595 1068.03 22.5744 1084.54 22.5744Z" fill="white"/>
<path d="M1085.09 52.6726H1092.69V51.8439H1085.09V44.3168H1084.13V51.8439H1076.67V52.6726H1084.13V60.3379H1085.09V52.6726Z" fill="#5C7985"/>
<path d="M1239.74 207.389H1136.18V103.824H1239.74V207.389Z" fill="#5C7985"/>
<path d="M1136.18 207.389H1032.61V103.824H1136.18V207.389Z" fill="#A3CEC1"/>
<path d="M1135.89 207.103C1135.89 150.063 1089.65 103.824 1032.61 103.824V103.824C1032.61 160.863 1078.85 207.103 1135.89 207.103Z" fill="#849C9B"/>
<path d="M1032.61 207.389H929.047V103.824H1032.61V207.389Z" fill="#A3CEC1"/>
<path d="M937.85 207.389H1023.96V155.749C1023.96 131.97 1004.69 112.693 980.906 112.693C957.127 112.693 937.85 131.97 937.85 155.749V207.389Z" fill="#2A3E4C"/>
<path d="M929.048 -103.306L1032.61 -103.306V0.259026L929.048 0.259026V-103.306Z" fill="#C0E1DD"/>
<path d="M929.048 0.258789V-51.5236C929.048 -80.1222 952.231 -103.306 980.83 -103.306H1032.61C1032.61 -46.1087 986.245 0.258789 929.048 0.258789Z" fill="#95C3B4"/>
<path d="M1446.87 103.823L1550.44 103.823V207.388H1446.87V103.823Z" fill="#C0E1DD"/>
<path d="M1446.87 207.389V155.606C1446.87 127.008 1470.05 103.824 1498.65 103.824H1550.44C1550.44 161.021 1504.07 207.389 1446.87 207.389Z" fill="#95C3B4"/>
<path d="M929.047 103.823H825.482V0.258553H929.047V103.823Z" fill="#2A3E4C"/>
<path d="M1239.74 0.259766H1136.18V-103.305H1239.74V0.259766Z" fill="#A3CEC1"/>
<path d="M1136.18 0.259766C1136.18 -56.9374 1182.54 -103.305 1239.74 -103.305C1239.74 -46.1077 1193.37 0.259766 1136.18 0.259766Z" fill="#C0E1DD"/>
<path d="M1446.87 103.823H1343.31V0.258553H1446.87V103.823Z" fill="#95C3B4"/>
<mask id="mask7_666_2" style="mask-type:alpha" maskUnits="userSpaceOnUse" x="1343" y="0" width="104" height="104">
<path d="M1446.87 103.823H1343.31V0.258553H1446.87V103.823Z" fill="#5C7985"/>
</mask>
<g mask="url(#mask7_666_2)">
<path d="M1446.73 -26.3467C1461.34 -26.3467 1473.19 -14.4986 1473.19 0.11668C1473.19 14.732 1461.34 26.5801 1446.73 26.5801C1432.11 26.5801 1420.26 14.732 1420.26 0.11668C1420.26 -14.4986 1432.11 -26.3467 1446.73 -26.3467Z" fill="#5C7985"/>
</g>
<mask id="mask8_666_2" style="mask-type:alpha" maskUnits="userSpaceOnUse" x="1343" y="0" width="104" height="104">
<path d="M1446.87 103.823H1343.31V0.258553H1446.87V103.823Z" fill="#5C7985"/>
</mask>
<g mask="url(#mask8_666_2)">
<path d="M1343.16 77.5039C1357.78 77.5039 1369.63 89.3519 1369.63 103.967C1369.63 118.583 1357.78 130.431 1343.16 130.431C1328.55 130.431 1316.7 118.583 1316.7 103.967C1316.7 89.3519 1328.55 77.5039 1343.16 77.5039Z" fill="#5C7985"/>
</g>
<path d="M929.047 -103.306L825.482 -103.306V0.259026L929.047 0.259026V-103.306Z" fill="white"/>
<path d="M900.567 -103.306L825.482 -103.306C825.482 -46.1085 871.85 0.259026 929.047 0.259026V-74.8254C929.047 -90.5546 916.296 -103.306 900.567 -103.306Z" fill="#FF7E6F"/>
<path d="M1239.74 0.259026V-103.306L1343.31 -103.306V0.259026L1239.74 0.259026Z" fill="#5C7985"/>
<path d="M1446.87 103.823V0.258789L1550.44 0.258789V103.823L1446.87 103.823Z" fill="#C0E1DD"/>
<path d="M1506.66 51.8987C1506.66 56.4018 1503.01 60.0522 1498.51 60.0522C1494.01 60.0522 1490.36 56.4018 1490.36 51.8987C1490.36 47.3956 1494.01 43.7451 1498.51 43.7451C1503.01 43.7451 1506.66 47.3956 1506.66 51.8987Z" fill="#FF7E6F"/>
<path d="M825.482 207.388V103.823L929.047 103.823V207.388H825.482Z" fill="#C0E1DD"/>
<path d="M885.275 155.463C885.275 159.966 881.624 163.617 877.121 163.617C872.618 163.617 868.968 159.966 868.968 155.463C868.968 150.96 872.618 147.31 877.121 147.31C881.624 147.31 885.275 150.96 885.275 155.463Z" fill="#FF7E6F"/>
<path d="M1446.87 0.259026V-103.306L1550.44 -103.306V0.259026L1446.87 0.259026Z" fill="#A3CEC1"/>
<path d="M1446.87 -103.306C1504.07 -103.306 1550.44 -56.9384 1550.44 0.258789C1493.24 0.258789 1446.87 -46.1087 1446.87 -103.306Z" fill="#C0E1DD"/>
<path d="M929.047 0.258553V103.823H1032.61V0.258553H929.047Z" fill="white"/>
<path d="M940.957 0.364937H1004.03C1019.75 0.364937 1032.51 13.116 1032.51 28.8453V91.9141C981.945 91.9141 940.957 50.9261 940.957 0.364937Z" fill="#5C7985"/>
<path d="M1024.84 17.8543C1024.84 13.3512 1021.19 9.70068 1016.69 9.70068C1012.19 9.70068 1008.54 13.3512 1008.54 17.8543C1008.54 22.3573 1012.19 26.0078 1016.69 26.0078C1021.19 26.0078 1024.84 22.3573 1024.84 17.8543Z" fill="#FF7E6F"/>
<path d="M1446.87 103.823H1343.31V207.388H1446.87V103.823Z" fill="#C0E1DD"/>
<path d="M1395.23 185.073C1411.74 185.073 1425.13 171.688 1425.13 155.177C1425.13 138.665 1411.74 125.28 1395.23 125.28C1378.72 125.28 1365.33 138.665 1365.33 155.177C1365.33 171.688 1378.72 185.073 1395.23 185.073Z" fill="white"/>
<path d="M1395.79 154.975H1403.39V155.804H1395.79V163.331H1394.83V155.804H1387.36V154.975H1394.83V147.31H1395.79V154.975Z" fill="#5C7985"/>
<path d="M1343.31 207.388V103.823L1239.74 103.823V207.388H1343.31Z" fill="#A3CEC1"/>
<path d="M1343.02 207.103C1285.98 207.103 1239.74 160.863 1239.74 103.824V103.824C1296.78 103.824 1343.02 150.064 1343.02 207.103Z" fill="#EAE8E4"/>
<path d="M1343.31 0.258789H1239.74V103.823H1343.31V0.258789Z" fill="#849C9B"/>
<mask id="mask9_666_2" style="mask-type:alpha" maskUnits="userSpaceOnUse" x="1239" y="0" width="105" height="104">
<path d="M1343.31 0.258789H1239.74V103.823H1343.31V0.258789Z" fill="white"/>
</mask>
<g mask="url(#mask9_666_2)">
<path d="M1343.16 130.43C1357.78 130.43 1369.63 118.582 1369.63 103.966C1369.63 89.351 1357.78 77.5029 1343.16 77.5029C1328.55 77.5029 1316.7 89.351 1316.7 103.966C1316.7 118.582 1328.55 130.43 1343.16 130.43Z" fill="white"/>
</g>
<mask id="mask10_666_2" style="mask-type:alpha" maskUnits="userSpaceOnUse" x="1239" y="0" width="105" height="104">
<path d="M1343.31 0.258789H1239.74V103.823H1343.31V0.258789Z" fill="white"/>
</mask>
<g mask="url(#mask10_666_2)">
<path d="M1239.6 26.5791C1254.21 26.5791 1266.06 14.7311 1266.06 0.115738C1266.06 -14.4996 1254.21 -26.3477 1239.6 -26.3477C1224.98 -26.3477 1213.13 -14.4996 1213.13 0.115738C1213.13 14.7311 1224.98 26.5791 1239.6 26.5791Z" fill="white"/>
</g>
<path d="M1654 0.258789H1550.44V103.823H1654V0.258789Z" fill="#8BAFBB"/>
<path d="M1602.24 92.9671C1625.71 92.9671 1644.73 74.1842 1644.73 51.0143C1644.73 27.8444 1625.71 9.06152 1602.24 9.06152C1578.78 9.06152 1559.76 27.8444 1559.76 51.0143C1559.76 74.1842 1578.78 92.9671 1602.24 92.9671Z" fill="#5C7985"/>
<path d="M1654 51.9062H1550.44V103.689H1654V51.9062Z" fill="#F5E304"/>
<mask id="mask11_666_2" style="mask-type:alpha" maskUnits="userSpaceOnUse" x="1550" y="51" width="105" height="53">
<path d="M1654 51.9062H1550.44V103.689H1654V51.9062Z" fill="white"/>
</mask>
<g mask="url(#mask11_666_2)">
<path d="M1602.2 93.785C1625.63 93.785 1644.63 75.0207 1644.63 51.8739C1644.63 28.7271 1625.63 9.96289 1602.2 9.96289C1578.76 9.96289 1559.76 28.7271 1559.76 51.8739C1559.76 75.0207 1578.76 93.785 1602.2 93.785Z" fill="white"/>
</g>
<path d="M1654 207.389H1550.44V103.824H1654V207.389Z" fill="#5C7985"/>
<path d="M1654 0.259766H1550.44V-103.305H1654V0.259766Z" fill="#A3CEC1"/>
<path d="M1550.44 0.259766C1550.44 -56.9374 1596.8 -103.305 1654 -103.305C1654 -46.1077 1607.63 0.259766 1550.44 0.259766Z" fill="#C0E1DD"/>
</g>
<g clip-path="url(#clip2_666_2)">
<path d="M1652.74 103.823V0.258789L1549.18 0.258789V103.823L1652.74 103.823Z" fill="#8BAFBB"/>
<path d="M1559.03 52.0509C1559.03 75.5144 1577.81 94.5354 1600.98 94.5354C1624.15 94.5354 1642.93 75.5144 1642.93 52.0509C1642.93 28.5874 1624.15 9.56641 1600.98 9.56641C1577.81 9.56641 1559.03 28.5874 1559.03 52.0509Z" fill="#5C7985"/>
<path d="M1600.96 103.823V0.258789L1549.18 0.258789V103.823L1600.96 103.823Z" fill="#2A3E4C"/>
<mask id="mask12_666_2" style="mask-type:alpha" maskUnits="userSpaceOnUse" x="1549" y="0" width="52" height="104">
<path d="M1600.96 103.823V0.258789L1549.18 0.258789V103.823L1600.96 103.823Z" fill="white"/>
</mask>
<g mask="url(#mask12_666_2)">
<path d="M1559.02 52.0086C1559.02 75.4456 1577.79 94.445 1600.93 94.445C1624.08 94.445 1642.84 75.4456 1642.84 52.0086C1642.84 28.5717 1624.08 9.57227 1600.93 9.57227C1577.79 9.57227 1559.02 28.5717 1559.02 52.0086Z" fill="white"/>
</g>
<path d="M1756.31 -103.305V0.259766L1859.87 0.259766V-103.305H1756.31Z" fill="#8BAFBB"/>
<path d="M1808.09 -103.305V0.259766L1859.87 0.259766V-103.305H1808.09Z" fill="#F5E304"/>
<path d="M1445.61 -103.306L1549.18 -103.306V0.259026L1445.61 0.259026V-103.306Z" fill="white"/>
<path d="M1445.72 -91.3955V-28.3267C1445.72 -12.5975 1458.47 0.153618 1474.2 0.153618L1537.27 0.153618C1537.27 -50.4076 1496.28 -91.3955 1445.72 -91.3955Z" fill="#5C7985"/>
<path d="M1549.18 103.823H1445.61V0.258553H1549.18V103.823Z" fill="#C0E1DD"/>
<path d="M1497.54 22.5744C1514.05 22.5744 1527.43 35.9595 1527.43 52.4708C1527.43 68.9821 1514.05 82.3672 1497.54 82.3672C1481.03 82.3672 1467.64 68.9821 1467.64 52.4708C1467.64 35.9595 1481.03 22.5744 1497.54 22.5744Z" fill="white"/>
<path d="M1498.09 52.6726H1505.69V51.8439H1498.09V44.3168H1497.13V51.8439H1489.67V52.6726H1497.13V60.3379H1498.09V52.6726Z" fill="#5C7985"/>
<path d="M1652.74 207.389H1549.18V103.824H1652.74V207.389Z" fill="#5C7985"/>
<path d="M1549.18 207.389H1445.61V103.824H1549.18V207.389Z" fill="#A3CEC1"/>
<path d="M1548.89 207.103C1548.89 150.063 1502.65 103.824 1445.61 103.824V103.824C1445.61 160.863 1491.85 207.103 1548.89 207.103Z" fill="#849C9B"/>
<path d="M1445.61 207.389H1342.05V103.824H1445.61V207.389Z" fill="#A3CEC1"/>
<path d="M1350.85 207.389H1436.96V155.749C1436.96 131.97 1417.69 112.693 1393.91 112.693C1370.13 112.693 1350.85 131.97 1350.85 155.749V207.389Z" fill="#2A3E4C"/>
<path d="M1342.05 -103.306L1445.61 -103.306V0.259026L1342.05 0.259026V-103.306Z" fill="#C0E1DD"/>
<path d="M1342.05 0.258789V-51.5236C1342.05 -80.1222 1365.23 -103.306 1393.83 -103.306H1445.61C1445.61 -46.1087 1399.24 0.258789 1342.05 0.258789Z" fill="#95C3B4"/>
<path d="M1859.87 103.823L1963.44 103.823V207.388H1859.87V103.823Z" fill="#C0E1DD"/>
<path d="M1859.87 207.389V155.606C1859.87 127.008 1883.05 103.824 1911.65 103.824H1963.44C1963.44 161.021 1917.07 207.389 1859.87 207.389Z" fill="#95C3B4"/>
<path d="M1342.05 103.823H1238.48V0.258553H1342.05V103.823Z" fill="#2A3E4C"/>
<path d="M1652.74 0.259766H1549.18V-103.305H1652.74V0.259766Z" fill="#A3CEC1"/>
<path d="M1549.18 0.259766C1549.18 -56.9374 1595.54 -103.305 1652.74 -103.305C1652.74 -46.1077 1606.37 0.259766 1549.18 0.259766Z" fill="#C0E1DD"/>
<path d="M1859.87 103.823H1756.31V0.258553H1859.87V103.823Z" fill="#95C3B4"/>
<mask id="mask13_666_2" style="mask-type:alpha" maskUnits="userSpaceOnUse" x="1756" y="0" width="104" height="104">
<path d="M1859.87 103.823H1756.31V0.258553H1859.87V103.823Z" fill="#5C7985"/>
</mask>
<g mask="url(#mask13_666_2)">
<path d="M1859.73 -26.3467C1874.34 -26.3467 1886.19 -14.4986 1886.19 0.11668C1886.19 14.732 1874.34 26.5801 1859.73 26.5801C1845.11 26.5801 1833.26 14.732 1833.26 0.11668C1833.26 -14.4986 1845.11 -26.3467 1859.73 -26.3467Z" fill="#5C7985"/>
</g>
<mask id="mask14_666_2" style="mask-type:alpha" maskUnits="userSpaceOnUse" x="1756" y="0" width="104" height="104">
<path d="M1859.87 103.823H1756.31V0.258553H1859.87V103.823Z" fill="#5C7985"/>
</mask>
<g mask="url(#mask14_666_2)">
<path d="M1756.16 77.5039C1770.78 77.5039 1782.63 89.3519 1782.63 103.967C1782.63 118.583 1770.78 130.431 1756.16 130.431C1741.55 130.431 1729.7 118.583 1729.7 103.967C1729.7 89.3519 1741.55 77.5039 1756.16 77.5039Z" fill="#5C7985"/>
</g>
<path d="M1342.05 -103.306L1238.48 -103.306V0.259026L1342.05 0.259026V-103.306Z" fill="white"/>
<path d="M1313.57 -103.306L1238.48 -103.306C1238.48 -46.1085 1284.85 0.259026 1342.05 0.259026V-74.8254C1342.05 -90.5546 1329.3 -103.306 1313.57 -103.306Z" fill="#FF7E6F"/>
<path d="M1652.74 0.259026V-103.306L1756.31 -103.306V0.259026L1652.74 0.259026Z" fill="#5C7985"/>
<path d="M1859.87 103.823V0.258789L1963.44 0.258789V103.823L1859.87 103.823Z" fill="#C0E1DD"/>
<path d="M1919.66 51.8987C1919.66 56.4018 1916.01 60.0522 1911.51 60.0522C1907.01 60.0522 1903.36 56.4018 1903.36 51.8987C1903.36 47.3956 1907.01 43.7451 1911.51 43.7451C1916.01 43.7451 1919.66 47.3956 1919.66 51.8987Z" fill="#FF7E6F"/>
<path d="M1238.48 207.388V103.823L1342.05 103.823V207.388H1238.48Z" fill="#C0E1DD"/>
<path d="M1298.27 155.463C1298.27 159.966 1294.62 163.617 1290.12 163.617C1285.62 163.617 1281.97 159.966 1281.97 155.463C1281.97 150.96 1285.62 147.31 1290.12 147.31C1294.62 147.31 1298.27 150.96 1298.27 155.463Z" fill="#FF7E6F"/>
<path d="M1859.87 0.259026V-103.306L1963.44 -103.306V0.259026L1859.87 0.259026Z" fill="#A3CEC1"/>
<path d="M1859.87 -103.306C1917.07 -103.306 1963.44 -56.9384 1963.44 0.258789C1906.24 0.258789 1859.87 -46.1087 1859.87 -103.306Z" fill="#C0E1DD"/>
<path d="M1342.05 0.258553V103.823H1445.61V0.258553H1342.05Z" fill="white"/>
<path d="M1353.96 0.364937H1417.03C1432.75 0.364937 1445.51 13.116 1445.51 28.8453V91.9141C1394.94 91.9141 1353.96 50.9261 1353.96 0.364937Z" fill="#5C7985"/>
<path d="M1437.84 17.8543C1437.84 13.3512 1434.19 9.70068 1429.69 9.70068C1425.19 9.70068 1421.54 13.3512 1421.54 17.8543C1421.54 22.3573 1425.19 26.0078 1429.69 26.0078C1434.19 26.0078 1437.84 22.3573 1437.84 17.8543Z" fill="#FF7E6F"/>
<path d="M1859.87 103.823H1756.31V207.388H1859.87V103.823Z" fill="#C0E1DD"/>
<path d="M1808.23 185.073C1824.74 185.073 1838.13 171.688 1838.13 155.177C1838.13 138.665 1824.74 125.28 1808.23 125.28C1791.72 125.28 1778.33 138.665 1778.33 155.177C1778.33 171.688 1791.72 185.073 1808.23 185.073Z" fill="white"/>
<path d="M1808.79 154.975H1816.39V155.804H1808.79V163.331H1807.83V155.804H1800.36V154.975H1807.83V147.31H1808.79V154.975Z" fill="#5C7985"/>
<path d="M1756.31 207.388V103.823L1652.74 103.823V207.388H1756.31Z" fill="#A3CEC1"/>
<path d="M1756.02 207.103C1698.98 207.103 1652.74 160.863 1652.74 103.824V103.824C1709.78 103.824 1756.02 150.064 1756.02 207.103Z" fill="#EAE8E4"/>
<path d="M1756.31 0.258789H1652.74V103.823H1756.31V0.258789Z" fill="#849C9B"/>
<mask id="mask15_666_2" style="mask-type:alpha" maskUnits="userSpaceOnUse" x="1652" y="0" width="105" height="104">
<path d="M1756.31 0.258789H1652.74V103.823H1756.31V0.258789Z" fill="white"/>
</mask>
<g mask="url(#mask15_666_2)">
<path d="M1756.16 130.43C1770.78 130.43 1782.63 118.582 1782.63 103.966C1782.63 89.351 1770.78 77.5029 1756.16 77.5029C1741.55 77.5029 1729.7 89.351 1729.7 103.966C1729.7 118.582 1741.55 130.43 1756.16 130.43Z" fill="white"/>
</g>
<mask id="mask16_666_2" style="mask-type:alpha" maskUnits="userSpaceOnUse" x="1652" y="0" width="105" height="104">
<path d="M1756.31 0.258789H1652.74V103.823H1756.31V0.258789Z" fill="white"/>
</mask>
<g mask="url(#mask16_666_2)">
<path d="M1652.6 26.5791C1667.21 26.5791 1679.06 14.7311 1679.06 0.115738C1679.06 -14.4996 1667.21 -26.3477 1652.6 -26.3477C1637.98 -26.3477 1626.13 -14.4996 1626.13 0.115738C1626.13 14.7311 1637.98 26.5791 1652.6 26.5791Z" fill="white"/>
</g>
</g>
<defs>
<clipPath id="clip0_666_2">
<rect width="828" height="621.388" fill="white" transform="translate(0 -414)"/>
</clipPath>
<clipPath id="clip1_666_2">
<rect width="828" height="621.388" fill="white" transform="translate(826 -414)"/>
</clipPath>
<clipPath id="clip2_666_2">
<rect width="828" height="621.388" fill="white" transform="translate(1239 -414)"/>
</clipPath>
</defs>
</svg>
