<svg width="53" height="53" viewBox="0 0 53 53" fill="none" xmlns="http://www.w3.org/2000/svg">
<path d="M46.3098 42.764L44.4937 37.3161C44.3902 37.0053 44.424 36.6712 44.574 36.38C45.9387 33.7284 46.5024 30.5978 45.9119 27.2979C45.0066 22.2393 41.3024 18.0359 36.4979 16.4238C37.7376 19.4179 38.1156 22.747 37.4963 26.0491C36.2381 32.7608 30.8636 38.0824 24.123 39.2912C23.2505 39.4478 22.369 39.524 21.4941 39.5462C23.5413 41.7548 26.2738 43.3248 29.3219 43.8715C32.6015 44.4597 35.7175 43.9122 38.3611 42.5678C38.6511 42.4203 38.9829 42.3875 39.2917 42.4904L44.7604 44.3133C45.718 44.6325 46.6291 43.7216 46.3098 42.764Z" fill="#5C7985"/>
<path d="M18.3389 8.87583C12.6582 9.93138 8.10585 14.5466 7.08787 20.2342C6.49742 23.5341 7.06106 26.6647 8.42582 29.3162C8.57581 29.6074 8.60956 29.9416 8.50614 30.2523L6.68996 35.7003C6.37082 36.6579 7.28176 37.5688 8.23938 37.2497L13.7081 35.4268C14.017 35.3239 14.3489 35.3567 14.6388 35.5042C17.2823 36.8486 20.3982 37.396 23.6779 36.8079C29.3515 35.7904 33.9551 31.2493 35.0171 25.5839C36.8885 15.6035 28.3163 7.02186 18.3389 8.87583ZM21.9555 27.2536H14.8922C14.1956 27.2536 13.6309 26.689 13.6309 25.9922C13.6309 25.2956 14.1956 24.7309 14.8922 24.7309H21.9555C22.6523 24.7309 23.2169 25.2956 23.2169 25.9922C23.2169 26.689 22.6523 27.2536 21.9555 27.2536ZM27.0008 22.2083H14.8921C14.1955 22.2083 13.6308 21.6438 13.6308 20.947C13.6308 20.2503 14.1955 19.6857 14.8921 19.6857H27.0007C27.6974 19.6857 28.262 20.2503 28.262 20.947C28.2621 21.6438 27.6975 22.2083 27.0008 22.2083Z" fill="#5C7985"/>
</svg>
