<svg width="42" height="42" viewBox="0 0 42 42" fill="none" xmlns="http://www.w3.org/2000/svg">
<path d="M20.9953 24.9889C21.3609 24.9888 21.723 25.0607 22.0608 25.2006C22.3986 25.3405 22.7055 25.5455 22.9641 25.804C23.2226 26.0625 23.4278 26.3694 23.5677 26.7072C23.7076 27.045 23.7796 27.407 23.7796 27.7726C23.7794 28.377 23.5827 28.9649 23.2192 29.4478C22.8557 29.9306 22.345 30.2822 21.7643 30.4495V30.7725C21.7647 30.8736 21.7451 30.9738 21.7066 31.0673C21.6681 31.1608 21.6114 31.2457 21.5399 31.3172C21.4685 31.3887 21.3835 31.4453 21.29 31.4838C21.1966 31.5223 21.0964 31.5419 20.9953 31.5415C20.5722 31.5415 20.2263 31.1956 20.2263 30.7725V30.4495C19.0651 30.111 18.2109 29.0419 18.2109 27.7726C18.2109 27.3501 18.5568 27.0036 18.9799 27.0036C19.403 27.0036 19.7495 27.3495 19.7495 27.7726C19.7495 28.4576 20.3109 29.019 20.9953 29.019C21.6871 29.019 22.2411 28.457 22.2411 27.7726C22.2411 27.0809 21.6877 26.5268 20.9953 26.5268C19.4648 26.5268 18.2109 25.273 18.2109 23.7351C18.2109 22.4738 19.0645 21.3973 20.2263 21.0588V20.7358C20.2263 20.3127 20.5722 19.9668 20.9953 19.9668C21.4258 19.9668 21.7643 20.3127 21.7643 20.7358V21.0588C22.9254 21.3973 23.7796 22.4664 23.7796 23.7351C23.7796 24.1656 23.4406 24.504 23.0101 24.504C22.909 24.5044 22.8088 24.4848 22.7153 24.4463C22.6218 24.4078 22.5369 24.3512 22.4654 24.2797C22.3939 24.2082 22.3373 24.1233 22.2988 24.0298C22.2603 23.9363 22.2407 23.8362 22.2411 23.7351C22.2411 23.5715 22.2089 23.4095 22.1463 23.2583C22.0836 23.1072 21.9919 22.9698 21.8762 22.8542C21.7605 22.7385 21.6232 22.6467 21.472 22.5841C21.3209 22.5215 21.1589 22.4893 20.9953 22.4893C20.6653 22.4906 20.3492 22.6222 20.1158 22.8556C19.8825 23.0889 19.7508 23.4051 19.7495 23.7351C19.7495 24.4268 20.3109 24.9889 20.9953 24.9889Z" fill="#5C7985"/>
<path d="M36.8641 13.184H28.0601C26.0392 13.184 24.3944 11.5453 24.3944 9.52439V1.24731C24.2066 1.22693 11.047 1.23496 10.8587 1.23496C10.1025 1.23463 9.35365 1.38334 8.65498 1.67259C7.95631 1.96183 7.3215 2.38594 6.78683 2.92066C6.25217 3.45539 5.82813 4.09025 5.53896 4.78895C5.24979 5.48765 5.10116 6.23649 5.10156 6.99266V35.0017C5.10156 38.1826 7.67715 40.765 10.858 40.765H31.1397C34.3144 40.765 36.8968 38.1832 36.8968 35.0017C36.8968 34.6188 36.9172 13.5613 36.8653 13.184H36.8641ZM9.59001 6.42937H21.2339C21.4029 6.42937 21.5651 6.49652 21.6846 6.61606C21.8041 6.7356 21.8713 6.89773 21.8713 7.06678C21.8713 7.23583 21.8041 7.39796 21.6846 7.5175C21.5651 7.63703 21.4029 7.70419 21.2339 7.70419H9.58939C9.42034 7.70419 9.25821 7.63703 9.13867 7.5175C9.01913 7.39796 8.95198 7.23583 8.95198 7.06678C8.95198 6.89773 9.01913 6.7356 9.13867 6.61606C9.25821 6.49652 9.42034 6.42937 9.58939 6.42937H9.59001ZM9.59001 11.1222C9.5063 11.1222 9.42341 11.1058 9.34608 11.0737C9.26874 11.0417 9.19848 10.9947 9.13929 10.9356C9.0801 10.8764 9.03315 10.8061 9.00111 10.7288C8.96908 10.6514 8.95259 10.5685 8.95259 10.4848C8.95259 10.4011 8.96908 10.3182 9.00111 10.2409C9.03315 10.1636 9.0801 10.0933 9.13929 10.0341C9.19848 9.97493 9.26874 9.92798 9.34608 9.89594C9.42341 9.86391 9.5063 9.84742 9.59001 9.84742H21.2339C21.3176 9.84742 21.4005 9.86391 21.4778 9.89594C21.5552 9.92798 21.6254 9.97493 21.6846 10.0341C21.7438 10.0933 21.7907 10.1636 21.8228 10.2409C21.8548 10.3182 21.8713 10.4011 21.8713 10.4848C21.8713 10.5685 21.8548 10.6514 21.8228 10.7288C21.7907 10.8061 21.7438 10.8764 21.6846 10.9356C21.6254 10.9947 21.5552 11.0417 21.4778 11.0737C21.4005 11.1058 21.3176 11.1222 21.2339 11.1222H9.58939H9.59001ZM21.0017 34.9758C15.9011 34.9758 11.7759 30.8443 11.7759 25.7506C11.7759 20.6624 15.9011 16.531 21.0017 16.531C26.0892 16.531 30.2207 20.663 30.2207 25.7506C30.2207 30.8443 26.0898 34.9758 21.0017 34.9758Z" fill="#5C7985"/>
<path d="M28.0562 11.9122H36.6019C36.2991 11.0217 35.7849 10.2178 35.1035 9.56945L28.0247 2.82042C27.3581 2.18876 26.5505 1.72507 25.6689 1.46777V9.52498C25.6693 10.158 25.9209 10.765 26.3685 11.2126C26.8161 11.6602 27.4231 11.9119 28.0562 11.9122Z" fill="#5C7985"/>
</svg>
