<svg width="38" height="38" viewBox="0 0 38 38" fill="none" xmlns="http://www.w3.org/2000/svg">
<path d="M27.8711 0C34.333 0 37.981 3.6651 38 10.127V27.873C38 34.333 34.333 38 27.8711 38H10.127C3.6651 38 0 34.333 0 27.873V10.127C0 3.6651 3.6651 0 10.127 0H27.8711ZM19.95 7.847C19.4161 7.524 18.7701 7.524 18.259 7.847C17.7441 8.1681 17.461 8.759 17.5161 9.348V28.709C17.613 29.526 18.2951 30.134 19.0931 30.134C19.912 30.134 20.5941 29.526 20.6701 28.709V9.348C20.7461 8.759 20.463 8.1681 19.95 7.847ZM11.077 14.079C10.564 13.756 9.9161 13.756 9.405 14.079C8.8901 14.402 8.607 14.9891 8.664 15.58V28.709C8.7381 29.526 9.4221 30.134 10.2391 30.134C11.058 30.134 11.7401 29.526 11.8161 28.709V15.58C11.875 14.9891 11.5881 14.402 11.077 14.079ZM28.6691 20.976C28.158 20.653 27.512 20.653 26.98 20.976C26.4651 21.299 26.182 21.8671 26.258 22.477V28.709C26.334 29.526 27.0161 30.134 27.835 30.134C28.633 30.134 29.3151 29.526 29.412 28.709V22.477C29.4671 21.8671 29.184 21.299 28.6691 20.976Z" fill="#2A3E4C"/>
</svg>
